<?xml version="1.0" encoding="UTF-8" standalone="no"?>
<svg width="219px" height="76px" viewBox="0 0 219 76" version="1.1" xmlns="http://www.w3.org/2000/svg" xmlns:xlink="http://www.w3.org/1999/xlink">
    <!-- Generator: Sketch 39 (31667) - http://www.bohemiancoding.com/sketch -->
    <title>app store</title>
    <desc>Created with Sketch.</desc>
    <defs></defs>
    <g id="Page-1" stroke="none" stroke-width="1" fill="none" fill-rule="evenodd">
        <g id="Desktop-HD" transform="translate(-750.000000, -313.000000)" fill="#5C5768">
            <g id="head" transform="translate(750.000000, 178.000000)">
                <g id="title">
                    <g id="app-store-link" transform="translate(0.000000, 135.000000)">
                        <path d="M0,4.00571844 C0,1.79342123 1.79501838,0 3.99992708,0 L215.000073,0 C217.209172,0 219,1.78518308 219,4.00571844 L219,71.9942816 C219,74.2065788 217.204982,76 215.000073,76 L3.99992708,76 C1.79082836,76 0,74.2148169 0,71.9942816 L0,4.00571844 Z M88.6661852,55.256 L85.2512741,55.256 L83.3806667,49.3925 L76.8786519,49.3925 L75.096763,55.256 L71.7720741,55.256 L78.2139407,35.294 L82.1927407,35.294 L88.6661852,55.256 Z M82.8167778,46.9325 L81.1251111,41.72 C80.9461704,41.1875 80.6108444,39.9335 80.1161259,37.9595 L80.0559778,37.9595 C79.8589926,38.8085 79.5417111,40.0625 79.105637,41.72 L77.4440444,46.9325 L82.8167778,46.9325 Z M105.232489,47.882 C105.232489,50.33 104.569356,52.265 103.243089,53.6855 C102.055163,54.95 100.58003,55.5815 98.8191926,55.5815 C96.9185111,55.5815 95.5531481,54.9005 94.7216,53.5385 L94.6614519,53.5385 L94.6614519,61.121 L91.4555556,61.121 L91.4555556,45.6005 C91.4555556,44.0615 91.4149556,42.482 91.336763,40.862 L94.1562074,40.862 L94.3351481,43.1435 L94.3952963,43.1435 C95.4644296,41.4245 97.0869259,40.5665 99.2642889,40.5665 C100.966481,40.5665 102.387481,41.237 103.524281,42.5795 C104.664089,43.9235 105.232489,45.6905 105.232489,47.882 Z M101.966444,47.999 C101.966444,46.598 101.650667,45.443 101.016104,44.534 C100.322896,43.586 99.3921037,43.112 98.2252296,43.112 C97.4342815,43.112 96.7155111,43.376 96.0734296,43.8965 C95.4298444,44.4215 95.0088074,45.107 94.8118222,45.956 C94.7125778,46.352 94.6629556,46.676 94.6629556,46.931 L94.6629556,49.331 C94.6629556,50.378 94.9847481,51.2615 95.6283333,51.983 C96.2719185,52.7045 97.1079778,53.0645 98.1365111,53.0645 C99.3439852,53.0645 100.2838,52.5995 100.955956,51.6725 C101.629615,50.744 101.966444,49.52 101.966444,47.999 Z M121.828867,47.882 C121.828867,50.33 121.165733,52.265 119.837963,53.6855 C118.651541,54.95 117.176407,55.5815 115.41557,55.5815 C113.514889,55.5815 112.149526,54.9005 111.319481,53.5385 L111.259333,53.5385 L111.259333,61.121 L108.053437,61.121 L108.053437,45.6005 C108.053437,44.0615 108.012837,42.482 107.934644,40.862 L110.754089,40.862 L110.93303,43.1435 L110.993178,43.1435 C112.060807,41.4245 113.683304,40.5665 115.86217,40.5665 C117.562859,40.5665 118.983859,41.237 120.123667,42.5795 C121.258963,43.9235 121.828867,45.6905 121.828867,47.882 Z M118.562822,47.999 C118.562822,46.598 118.245541,45.443 117.610978,44.534 C116.91777,43.586 115.989985,43.112 114.821607,43.112 C114.029156,43.112 113.311889,43.376 112.668304,43.8965 C112.024719,44.4215 111.605185,45.107 111.4082,45.956 C111.310459,46.352 111.259333,46.676 111.259333,46.931 L111.259333,49.331 C111.259333,50.378 111.581126,51.2615 112.221704,51.983 C112.865289,52.703 113.701348,53.0645 114.732889,53.0645 C115.940363,53.0645 116.880178,52.5995 117.552333,51.6725 C118.225993,50.744 118.562822,49.52 118.562822,47.999 Z M140.38457,49.658 C140.38457,51.356 139.793615,52.7375 138.607193,53.804 C137.303481,54.9695 135.488511,55.5515 133.156267,55.5515 C131.002963,55.5515 129.276711,55.1375 127.969993,54.308 L128.712822,51.6425 C130.120289,52.4915 131.664593,52.9175 133.347237,52.9175 C134.554711,52.9175 135.494526,52.6445 136.169689,52.1015 C136.841844,51.5585 137.17717,50.8295 137.17717,49.9205 C137.17717,49.1105 136.900489,48.428 136.345622,47.8745 C135.793763,47.321 134.871993,46.8065 133.584822,46.331 C130.081193,45.0275 128.330881,43.118 128.330881,40.607 C128.330881,38.966 128.944393,37.6205 130.172919,36.5735 C131.396933,35.525 133.029956,35.0015 135.071985,35.0015 C136.89297,35.0015 138.405696,35.318 139.61317,35.9495 L138.811696,38.5565 C137.683919,37.9445 136.408778,37.6385 134.981763,37.6385 C133.853985,37.6385 132.972815,37.916 132.341259,38.468 C131.807444,38.9615 131.539785,39.563 131.539785,40.2755 C131.539785,41.0645 131.845037,41.717 132.458548,42.23 C132.992363,42.704 133.962252,43.217 135.369719,43.7705 C137.091459,44.462 138.356074,45.2705 139.169578,46.1975 C139.980074,47.1215 140.38457,48.278 140.38457,49.658 Z M150.984178,43.262 L147.450474,43.262 L147.450474,50.2505 C147.450474,52.028 148.073007,52.916 149.321081,52.916 C149.893993,52.916 150.369163,52.8665 150.745089,52.7675 L150.833807,55.196 C150.202252,55.4315 149.370704,55.55 148.340667,55.55 C147.074548,55.55 146.085111,55.1645 145.370852,54.395 C144.6596,53.624 144.301719,52.331 144.301719,50.5145 L144.301719,43.259 L142.196533,43.259 L142.196533,40.859 L144.301719,40.859 L144.301719,38.2235 L147.450474,37.2755 L147.450474,40.859 L150.984178,40.859 L150.984178,43.262 Z M166.927948,47.9405 C166.927948,50.153 166.293385,51.9695 165.027267,53.39 C163.699496,54.8525 161.937156,55.5815 159.740244,55.5815 C157.62303,55.5815 155.937378,54.881 154.680281,53.48 C153.423185,52.079 152.794637,50.3105 152.794637,48.179 C152.794637,45.9485 153.44123,44.1215 154.738926,42.701 C156.033615,41.279 157.780919,40.568 159.97783,40.568 C162.095044,40.568 163.798741,41.2685 165.084407,42.671 C166.314437,44.0315 166.927948,45.788 166.927948,47.9405 Z M163.601756,48.044 C163.601756,46.7165 163.317556,45.578 162.741637,44.6285 C162.069481,43.4795 161.108615,42.9065 159.863548,42.9065 C158.574874,42.9065 157.595963,43.481 156.923807,44.6285 C156.347889,45.5795 156.063689,46.736 156.063689,48.104 C156.063689,49.4315 156.347889,50.57 156.923807,51.518 C157.617015,52.667 158.5854,53.24 159.834978,53.24 C161.058993,53.24 162.019859,52.655 162.713067,51.488 C163.304022,50.5205 163.601756,49.37 163.601756,48.044 Z M177.348615,43.6745 C177.031333,43.616 176.693,43.586 176.338126,43.586 C175.210348,43.586 174.3382,44.0105 173.724689,44.861 C173.190874,45.611 172.923215,46.559 172.923215,47.7035 L172.923215,55.256 L169.718822,55.256 L169.748896,45.395 C169.748896,43.736 169.708296,42.2255 169.6286,40.8635 L172.420978,40.8635 L172.538267,43.6175 L172.626985,43.6175 C172.965319,42.671 173.499133,41.909 174.229933,41.3375 C174.944193,40.823 175.715593,40.5665 176.547141,40.5665 C176.84337,40.5665 177.11103,40.5875 177.348615,40.625 L177.348615,43.6745 Z M191.68643,47.378 C191.68643,47.951 191.648837,48.434 191.569141,48.8285 L181.951452,48.8285 C181.989044,50.2505 182.453689,51.338 183.346889,52.088 C184.157385,52.7585 185.205467,53.0945 186.492637,53.0945 C187.916644,53.0945 189.215844,52.868 190.384222,52.4135 L190.886459,54.6335 C189.521096,55.2275 187.909126,55.523 186.049044,55.523 C183.811533,55.523 182.055207,54.866 180.777059,53.5535 C179.501919,52.241 178.862844,50.4785 178.862844,48.2675 C178.862844,46.097 179.456807,44.2895 180.646237,42.848 C181.891304,41.309 183.573948,40.5395 185.691163,40.5395 C187.770785,40.5395 189.345163,41.309 190.414296,42.848 C191.260881,44.0705 191.68643,45.5825 191.68643,47.378 Z M188.6294,46.5485 C188.650452,45.6005 188.441437,44.7815 188.006867,44.09 C187.452,43.2005 186.5994,42.7565 185.452074,42.7565 C184.403993,42.7565 183.551393,43.19 182.900289,44.06 C182.366474,44.7515 182.049193,45.581 181.951452,46.547 L188.6294,46.547 L188.6294,46.5485 Z M81.7566667,23.0135 C81.7566667,24.779 81.2258593,26.108 80.1657481,27.0005 C79.1838296,27.824 77.7883926,28.2365 75.9809407,28.2365 C75.0847333,28.2365 74.3178444,28.1975 73.675763,28.1195 L73.675763,18.473 C74.5133259,18.338 75.4155481,18.269 76.3899481,18.269 C78.1116889,18.269 79.4093852,18.6425 80.2845407,19.3895 C81.2649556,20.234 81.7566667,21.4415 81.7566667,23.0135 Z M80.0950741,23.057 C80.0950741,21.9125 79.7913259,21.035 79.1838296,20.423 C78.5763333,19.8125 77.6891481,19.5065 76.5207704,19.5065 C76.0245481,19.5065 75.6020074,19.5395 75.2516444,19.6085 L75.2516444,26.942 C75.4456222,26.972 75.8004963,26.9855 76.3162667,26.9855 C77.522237,26.9855 78.4530296,26.651 79.1086444,25.982 C79.7642593,25.313 80.0950741,24.338 80.0950741,23.057 Z M90.5668667,24.5555 C90.5668667,25.643 90.2556,26.534 89.6330667,27.233 C88.9804593,27.9515 88.1158296,28.31 87.0361704,28.31 C85.9956074,28.31 85.1670667,27.9665 84.5490444,27.2765 C83.9325259,26.588 83.6242667,25.7195 83.6242667,24.6725 C83.6242667,23.5775 83.9415481,22.679 84.5791185,21.9815 C85.2166889,21.284 86.0738,20.9345 87.1534593,20.9345 C88.1940222,20.9345 89.0300815,21.278 89.6631407,21.9665 C90.2646222,22.6355 90.5668667,23.4995 90.5668667,24.5555 Z M88.9323407,24.6065 C88.9323407,23.954 88.7909926,23.3945 88.5098,22.928 C88.1789852,22.364 87.7083259,22.082 87.0963185,22.082 C86.4632593,22.082 85.9820741,22.364 85.6512593,22.928 C85.368563,23.3945 85.2287185,23.963 85.2287185,24.635 C85.2287185,25.2875 85.3700667,25.847 85.6512593,26.3135 C85.9926,26.8775 86.4677704,27.1595 87.0812815,27.1595 C87.682763,27.1595 88.1549259,26.873 88.494763,26.2985 C88.7864815,25.823 88.9323407,25.259 88.9323407,24.6065 Z M102.379963,21.0785 L100.162,28.1495 L98.7184444,28.1495 L97.7996815,25.079 C97.5666074,24.3125 97.3771407,23.5505 97.2297778,22.7945 L97.2012074,22.7945 C97.0643704,23.5715 96.8749037,24.332 96.6313037,25.079 L95.6554,28.1495 L94.1953037,28.1495 L92.1096667,21.0785 L93.7291556,21.0785 L94.5306296,24.44 C94.7246074,25.235 94.884,25.9925 95.0118148,26.7095 L95.0403852,26.7095 C95.1576741,26.1185 95.3516519,25.3655 95.6253259,24.455 L96.6313037,21.08 L97.9154667,21.08 L98.8793407,24.383 C99.1124148,25.1885 99.3018815,25.964 99.4477407,26.711 L99.4913481,26.711 C99.5981111,25.9835 99.7590074,25.208 99.9725333,24.383 L100.832652,21.08 L102.379963,21.08 L102.379963,21.0785 Z M110.549585,28.1495 L108.973704,28.1495 L108.973704,24.0995 C108.973704,22.8515 108.498533,22.2275 107.545185,22.2275 C107.077533,22.2275 106.700104,22.3985 106.406881,22.742 C106.116667,23.0855 105.969304,23.4905 105.969304,23.954 L105.969304,28.148 L104.393422,28.148 L104.393422,23.099 C104.393422,22.478 104.373874,21.8045 104.336281,21.0755 L105.721193,21.0755 L105.794874,22.181 L105.838481,22.181 C106.021933,21.8375 106.295607,21.554 106.654993,21.3275 C107.082044,21.0635 107.560222,20.93 108.083511,20.93 C108.745141,20.93 109.295496,21.143 109.733074,21.5705 C110.277415,22.094 110.549585,22.8755 110.549585,23.9135 L110.549585,28.1495 L110.549585,28.1495 Z M114.895289,28.1495 L113.320911,28.1495 L113.320911,17.834 L114.895289,17.834 L114.895289,28.1495 Z M124.173141,24.5555 C124.173141,25.643 123.861874,26.534 123.239341,27.233 C122.586733,27.9515 121.7206,28.31 120.642444,28.31 C119.600378,28.31 118.771837,27.9665 118.155319,27.2765 C117.5388,26.588 117.230541,25.7195 117.230541,24.6725 C117.230541,23.5775 117.547822,22.679 118.185393,21.9815 C118.822963,21.284 119.680074,20.9345 120.75823,20.9345 C121.800296,20.9345 122.634852,21.278 123.269415,21.9665 C123.870896,22.6355 124.173141,23.4995 124.173141,24.5555 Z M122.537111,24.6065 C122.537111,23.954 122.395763,23.3945 122.11457,22.928 C121.785259,22.364 121.313096,22.082 120.702593,22.082 C120.06803,22.082 119.586844,22.364 119.257533,22.928 C118.974837,23.3945 118.834993,23.963 118.834993,24.635 C118.834993,25.2875 118.976341,25.847 119.257533,26.3135 C119.598874,26.8775 120.074044,27.1595 120.687556,27.1595 C121.289037,27.1595 121.759696,26.873 122.099533,26.2985 C122.392756,25.823 122.537111,25.259 122.537111,24.6065 Z M131.799926,28.1495 L130.384941,28.1495 L130.267652,27.335 L130.224044,27.335 C129.739852,27.9845 129.049652,28.31 128.153444,28.31 C127.484296,28.31 126.942963,28.0955 126.535459,27.6695 C126.165548,27.2825 125.980593,26.801 125.980593,26.2295 C125.980593,25.3655 126.341481,24.707 127.06777,24.251 C127.792556,23.795 128.812067,23.5715 130.1248,23.582 L130.1248,23.45 C130.1248,22.5185 129.634593,22.0535 128.652674,22.0535 C127.953452,22.0535 127.336933,22.229 126.804622,22.577 L126.484333,21.545 C127.142956,21.1385 127.956459,20.9345 128.915822,20.9345 C130.768385,20.9345 131.697674,21.9095 131.697674,23.8595 L131.697674,26.4635 C131.697674,27.17 131.732259,27.7325 131.799926,28.1495 Z M130.163896,25.7195 L130.163896,24.629 C128.425615,24.599 127.556474,25.0745 127.556474,26.054 C127.556474,26.423 127.655719,26.699 127.858719,26.8835 C128.061719,27.068 128.320356,27.1595 128.628615,27.1595 C128.974467,27.1595 129.297763,27.05 129.592489,26.8325 C129.888719,26.6135 130.070667,26.336 130.138333,25.9955 C130.154874,25.919 130.163896,25.826 130.163896,25.7195 Z M140.754481,28.1495 L139.356037,28.1495 L139.282356,27.014 L139.238748,27.014 C138.792148,27.878 138.031274,28.31 136.962141,28.31 C136.108037,28.31 135.396785,27.9755 134.832896,27.3065 C134.269007,26.6375 133.987815,25.769 133.987815,24.7025 C133.987815,23.558 134.293067,22.631 134.906578,21.923 C135.500541,21.263 136.228333,20.933 137.094467,20.933 C138.046311,20.933 138.712452,21.2525 139.091385,21.893 L139.121459,21.893 L139.121459,17.834 L140.698844,17.834 L140.698844,26.2445 C140.698844,26.933 140.716889,27.5675 140.754481,28.1495 Z M139.121459,25.1675 L139.121459,23.9885 C139.121459,23.7845 139.106422,23.6195 139.077852,23.4935 C138.989133,23.1155 138.798163,22.7975 138.507948,22.541 C138.214726,22.2845 137.861356,22.1555 137.453852,22.1555 C136.865904,22.1555 136.40577,22.388 136.067437,22.8545 C135.732111,23.321 135.562193,23.9165 135.562193,24.644 C135.562193,25.343 135.723089,25.91 136.046385,26.3465 C136.387726,26.8115 136.847859,27.044 137.423778,27.044 C137.941052,27.044 138.35457,26.8505 138.668844,26.462 C138.972593,26.1035 139.121459,25.6715 139.121459,25.1675 Z M154.232178,24.5555 C154.232178,25.643 153.920911,26.534 153.298378,27.233 C152.64577,27.9515 151.782644,28.31 150.701481,28.31 C149.662422,28.31 148.833881,27.9665 148.214356,27.2765 C147.597837,26.588 147.289578,25.7195 147.289578,24.6725 C147.289578,23.5775 147.606859,22.679 148.24443,21.9815 C148.882,21.284 149.739111,20.9345 150.820274,20.9345 C151.859333,20.9345 152.696896,21.278 153.328452,21.9665 C153.929933,22.6355 154.232178,23.4995 154.232178,24.5555 Z M152.599156,24.6065 C152.599156,23.954 152.457807,23.3945 152.176615,22.928 C151.844296,22.364 151.375141,22.082 150.76163,22.082 C150.130074,22.082 149.648889,22.364 149.31657,22.928 C149.033874,23.3945 148.89403,23.963 148.89403,24.635 C148.89403,25.2875 149.035378,25.847 149.31657,26.3135 C149.657911,26.8775 150.133081,27.1595 150.746593,27.1595 C151.348074,27.1595 151.821741,26.873 152.161578,26.2985 C152.451793,25.823 152.599156,25.259 152.599156,24.6065 Z M162.705548,28.1495 L161.13117,28.1495 L161.13117,24.0995 C161.13117,22.8515 160.656,22.2275 159.701148,22.2275 C159.233496,22.2275 158.856067,22.3985 158.564348,22.742 C158.27263,23.0855 158.12677,23.4905 158.12677,23.954 L158.12677,28.148 L156.549385,28.148 L156.549385,23.099 C156.549385,22.478 156.531341,21.8045 156.493748,21.0755 L157.877156,21.0755 L157.950837,22.181 L157.994444,22.181 C158.1794,21.8375 158.453074,21.554 158.810956,21.3275 C159.239511,21.0635 159.716185,20.93 160.240978,20.93 C160.901104,20.93 161.451459,21.143 161.889037,21.5705 C162.434881,22.094 162.705548,22.8755 162.705548,23.9135 L162.705548,28.1495 L162.705548,28.1495 Z M173.31117,22.256 L171.575896,22.256 L171.575896,25.691 C171.575896,26.564 171.884156,27.0005 172.494659,27.0005 C172.777356,27.0005 173.011933,26.9765 173.196889,26.927 L173.237489,28.1195 C172.926222,28.2365 172.517215,28.295 172.013474,28.295 C171.390941,28.295 170.906748,28.106 170.556385,27.728 C170.204519,27.35 170.030089,26.714 170.030089,25.8215 L170.030089,22.256 L168.994037,22.256 L168.994037,21.0785 L170.030089,21.0785 L170.030089,19.7825 L171.574393,19.3175 L171.574393,21.077 L173.309667,21.077 L173.309667,22.256 L173.31117,22.256 Z M181.653719,28.1495 L180.076333,28.1495 L180.076333,24.1295 C180.076333,22.862 179.601163,22.2275 178.649319,22.2275 C177.918519,22.2275 177.419289,22.595 177.145615,23.33 C177.099,23.4845 177.071933,23.6735 177.071933,23.8955 L177.071933,28.148 L175.497556,28.148 L175.497556,17.834 L177.071933,17.834 L177.071933,22.0955 L177.102007,22.0955 C177.59823,21.32 178.309481,20.933 179.231252,20.933 C179.883859,20.933 180.423689,21.146 180.852244,21.5735 C181.386059,22.106 181.653719,22.898 181.653719,23.945 L181.653719,28.1495 L181.653719,28.1495 Z M190.259415,24.2795 C190.259415,24.5615 190.238363,24.7985 190.20077,24.992 L185.47463,24.992 C185.495681,25.691 185.721237,26.2235 186.158815,26.5925 C186.5588,26.9225 187.07457,27.0875 187.706126,27.0875 C188.405348,27.0875 189.042919,26.9765 189.617333,26.753 L189.863941,27.845 C189.191785,28.136 188.400837,28.2815 187.485081,28.2815 C186.387378,28.2815 185.522748,27.959 184.897207,27.314 C184.268659,26.669 183.957393,25.8035 183.957393,24.7175 C183.957393,23.651 184.247607,22.763 184.832548,22.055 C185.443052,21.299 186.268585,20.921 187.310652,20.921 C188.330163,20.921 189.10457,21.299 189.627859,22.055 C190.0504,22.655 190.259415,23.3975 190.259415,24.2795 Z M188.755711,23.873 C188.767741,23.4065 188.663985,23.0045 188.450459,22.6655 C188.176785,22.229 187.760259,22.01 187.19637,22.01 C186.682104,22.01 186.26257,22.223 185.942281,22.6505 C185.680637,22.991 185.525756,23.3975 185.47463,23.873 L188.755711,23.873 Z M53.3035852,37.676 C53.2599778,32.8415 57.2718593,30.4895 57.4553111,30.38 C55.1832148,27.0755 51.6615407,26.624 50.4239926,26.588 C47.4662074,26.2775 44.5971407,28.3535 43.0904296,28.3535 C41.5536444,28.3535 39.2334296,26.618 36.7327704,26.669 C33.5148444,26.7185 30.5044296,28.577 28.853363,31.463 C25.4459704,37.3475 27.9872296,45.995 31.2517704,50.7515 C32.8847926,53.081 34.7929926,55.682 37.2906444,55.5905 C39.734163,55.49 40.6469111,54.0365 43.5956741,54.0365 C46.5173704,54.0365 47.3744815,55.5905 49.9217556,55.532 C52.5442148,55.49 54.1952815,53.192 55.771163,50.8415 C57.6583111,48.1715 58.4161778,45.542 58.4462519,45.407 C58.3846,45.386 53.3532074,43.4705 53.3035852,37.676 Z M48.4917333,23.459 C49.8059704,21.8195 50.7051852,19.589 50.4555704,17.3255 C48.5533852,17.4095 46.1745259,18.638 44.8046519,20.2415 C43.5926667,21.6545 42.51,23.9705 42.7896889,26.1485 C44.9264519,26.3075 47.1203556,25.073 48.4917333,23.459 Z" id="app-store"></path>
                    </g>
                </g>
            </g>
        </g>
    </g>
</svg>