<?xml version="1.0" encoding="UTF-8" standalone="no"?>
<svg width="220px" height="220px" viewBox="0 0 220 220" version="1.1" xmlns="http://www.w3.org/2000/svg" xmlns:xlink="http://www.w3.org/1999/xlink">
    <!-- Generator: Sketch 39 (31667) - http://www.bohemiancoding.com/sketch -->
    <title>themes/banana-baseball-2</title>
    <desc>Created with Sketch.</desc>
    <defs>
        <path d="M35,9.00000013 C39,2.99999999 45,5.00000002 50,5.00000002 C42,-1.03864166e-07 35,5 30,8 C25,11 15,21.0000008 11,27 C27,12.0000001 31,15.0000003 35,9.00000013 Z" id="path-1"></path>
        <mask id="mask-2" maskContentUnits="userSpaceOnUse" maskUnits="objectBoundingBox" x="-2" y="-2" width="43" height="28.124753">
            <rect x="9" y="0.875247005" width="43" height="28.124753" fill="white"></rect>
            <use xlink:href="#path-1" fill="black"></use>
        </mask>
        <path d="M11,70 C19,80 37,82 44,77 C51,72 52,44 52,44 C52,44 60,15 54,12 C48,9 45,14 45,14 C45,14 47,7.99999984 43,6 C39,4.00000016 35,8 35,8 C35,8 36,3.99999993 32,3 C28,2.00000007 25,6 25,6 C25,6 24,1.99999996 21,2 C18,2.00000004 17,2 17,2 C17,2 15,0 13,0 C11,0 2,17 1,27 C2.02948769e-13,37 5,48 5,48 C5,48 3,60 11,70 Z M8,10 C8,10 10,14 12,16 L10,22 C10,22 4,18 4,16 L8,10 Z M1,28 C1,28 4,32 7,34 C6,37 6,38 4,42 C2.18975152,40.1897515 1,28 1,28 Z" id="path-3"></path>
    </defs>
    <g id="Symbols" stroke="none" stroke-width="1" fill="none" fill-rule="evenodd">
        <g id="themes/banana-baseball-2">
            <g id="body" transform="translate(10.000000, 29.000000)">
                <path d="M194.328056,62.6584896 C194.501056,56.7644896 191.270056,51.6584896 185.891056,49.3334896 C180.577056,47.0364896 174.534056,48.1624896 170.495056,52.2004896 C170.051056,52.6454896 169.627056,53.1274896 169.235056,53.6354896 C167.086056,56.4174896 164.726056,59.0984896 162.222056,61.6024896 C161.681056,62.1444896 161.130056,62.6794896 160.570056,63.2094896 C153.479844,69.9232345 146.584446,73.9985887 137.937539,77.6059371 C134.245147,79.2608622 134.340343,82.6949595 134.952254,84.2106074 C137.294011,90.0109239 117.981696,99.7669581 117.274589,91.9887827 C116.567481,84.2106074 106.120838,85.6374896 103.929056,85.6374896 C82.6770564,85.6374896 62.5620564,77.6734896 47.2870564,63.2114896 C44.1510564,60.2424896 41.2360564,57.0204896 38.6210564,53.6354896 C36.1030564,50.3754896 32.5180564,48.4394896 28.5250564,48.1834896 C24.4450564,47.9224896 20.4460564,49.4304896 17.5560564,52.3204896 C14.8420564,55.0324896 13.4150564,58.7044896 13.5350564,62.6584896 L13.5350564,72.6584896 C14.2390564,95.7564896 23.6290564,117.47949 39.9760564,133.82649 C57.0100564,150.86149 79.7220564,160.24249 103.928056,160.24249 C128.133056,160.24249 150.845056,150.86149 167.879056,133.82749 C184.227056,117.47949 193.617056,95.7564896 194.321056,72.6584896 L194.328056,62.6584896 Z" id="base" fill="#5C5768" transform="translate(103.931366, 104.198470) rotate(-315.000000) translate(-103.931366, -104.198470) "></path>
                <path d="M145.559249,81.3283159 C144.555818,81.8297245 142.632465,82.1588939 143.23281,84.8917956 C144.397443,90.1934619 116.113172,99.7668123 116.113172,94.8673358 C116.113172,90.6246944 113.99185,89.9175907 111.825365,90.294821 C88.7475797,91.6350725 65.2221201,83.8434879 47.3480934,66.9202245 C44.0110934,63.7612245 40.9840934,60.4042245 38.2660934,56.8852245 C32.3140934,49.1772245 20.0480934,53.6072245 20.3450934,63.3412245 C20.9920934,84.5682245 29.4140934,105.601225 45.6160934,121.803225 C79.2760934,155.464225 134.203093,155.464225 167.863093,121.803225 C184.065093,105.601225 192.487093,84.5682245 193.134093,63.3412245 C193.431093,53.6072245 181.165093,49.1782245 175.212093,56.8852245 C172.494093,60.4032245 169.468093,63.7602245 166.132093,66.9192245 C159.87915,72.8399261 152.934485,77.6429543 145.559249,81.3283159 Z" id="yellow-back" fill="#FFFF00" transform="translate(106.739593, 100.004162) rotate(-315.000000) translate(-106.739593, -100.004162) "></path>
                <path d="M164.285238,97.0289675 C132.330238,128.983968 80.5202378,128.983968 48.5652378,97.0289675 C36.3992378,84.8629675 28.8792378,69.8179675 25.9772378,54.0889675 C22.5262378,55.6109675 19.8912378,59.0129675 20.0302378,63.5879675 C20.6772378,84.8149675 29.1002378,105.846968 45.3012378,122.049968 C78.9612378,155.710968 133.889238,155.710968 167.549238,122.049968 C183.751238,105.846968 192.173238,84.8149675 192.820238,63.5879675 C192.959238,59.0129675 190.324238,55.6109675 186.873238,54.0889675 C183.971238,69.8179675 176.451238,84.8629675 164.285238,97.0289675" id="yellow-shade" fill="#FFD500" transform="translate(106.425238, 100.692343) rotate(-315.000000) translate(-106.425238, -100.692343) "></path>
            </g>
            <g id="ball-cap" transform="translate(59.000000, 27.000000)">
                <path d="M18,18 C10.8726514,24.7910527 3.87145567,33.2990381 3.87145567,33.2990381 C3.87145567,33.2990381 -4.1285445,22.2990377 2.87145562,11.2990377 C9.87145573,0.299037674 18.871455,-0.700961853 22.8714557,0.299038147 C24.8239707,0.787166835 27.4912943,3.65799168 29.7103644,6.46908175 C30.795642,7.84389787 24.2293444,12.0645802 18,18 Z" id="Path-471" fill="#5C5768"></path>
                <circle id="Oval-465" fill="#5C5768" cx="4" cy="10" r="2"></circle>
                <path d="M15.3501749,18.7161965 C14.0697142,19.612519 12.4213581,6.47941165 13.2015723,5.67942509 C16.7869427,2.00319373 20.6667078,1.69566081 22.5811281,2.17426582 C24.9121465,2.75702031 28.9914275,9.16731969 28.9914275,9.16731969 L15.3501749,18.7161965 Z" id="Path-471" fill="#D8D8D8"></path>
                <path d="M28.9999998,20 C31.9999998,17 40.0000003,17 40,24 C39.9999997,31 42.000001,33 44.0000002,28 C54.0308851,20 58.0617676,9.38583172 54.0308844,5.19291586 C50.0000013,0.999999991 38.9999994,-3.99999967 20,13.3499985 C10.9999996,21.6999969 16.0000001,22 20,18 C23.9999999,14 28.9999998,14 28.9999998,20 Z" id="hat" fill="#5C5768"></path>
                <g id="Path-3023">
                    <use fill="#FF6619" fill-rule="evenodd" xlink:href="#path-1"></use>
                    <use stroke="#5C5768" mask="url(#mask-2)" stroke-width="4" stroke-linecap="round" stroke-linejoin="round" xlink:href="#path-1"></use>
                </g>
            </g>
            <g id="mouth" transform="translate(77.000000, 130.000000)">
                <path d="M30,33 C10.0591403,29.158144 -1.49500347e-08,6.58612197 0,-7.10542736e-15 C27,17 42,11 54,1 C56.3240311,2.85922484 60.9621171,7.47725556 60.9621171,7.47725556 L64.0528854,4.92729519 C64.0528854,4.92729519 72.7336839,11.0287217 75,12 C69.3830509,25.8263361 45.1708005,35.9228444 30,33 Z" stroke="#5C5768" stroke-width="4" stroke-linecap="round" stroke-linejoin="round" fill="#FFFFB3"></path>
                <path d="M14.9579265,18.6434863 C15.9985324,18.9308079 22.9999991,20 27.0000007,19.0000005 C18.9999991,18 15.8210205,17.1828826 11.3001535,14.7689126 C6.91183829,12.4257201 8.00000003,7 13,9 C10.2648334,7.63241669 2,1 2,1 C2,1 1.90193958,9.70897029 2,10 C2.43302155,11.2851479 16.9566784,25 13.9783392,22 C11,19 13.9173205,18.3561646 14.9579265,18.6434863 Z" id="Path-422" fill="#5C5768"></path>
            </g>
            <g id="eyes" transform="translate(70.000000, 97.000000)">
                <circle id="eye-R" fill="#5C5768" cx="48.5" cy="5.5" r="5.5"></circle>
                <circle id="eye-L" fill="#5C5768" cx="12.5" cy="6.5" r="5.5"></circle>
                <path d="M1.8765263,22.6820474 C1.42583714,21.6679968 1.42024125,20.0364867 1.8765263,19.0098453 L2.02221425,18.6820474 C2.47290341,17.6679968 3.74311099,16.8459464 4.83578283,16.8459464 L21.2851799,16.8459464 C22.3883818,16.8459464 23.6424635,17.655406 24.0987485,18.6820474 L24.2444365,19.0098453 C24.6951256,20.0238959 24.7007215,21.655406 24.2444365,22.6820474 L24.0987485,23.0098453 C23.6480594,24.0238959 22.3778518,24.8459464 21.2851799,24.8459464 L4.83578283,24.8459464 C3.73258097,24.8459464 2.47849931,24.0364867 2.02221425,23.0098453 L1.8765263,22.6820474 Z" id="Rectangle-1105" fill="#B38600" transform="translate(13.060481, 20.845946) rotate(-354.000000) translate(-13.060481, -20.845946) "></path>
            </g>
            <g id="glove" transform="translate(127.000000, 44.000000)">
                <mask id="mask-4" fill="white">
                    <use xlink:href="#path-3"></use>
                </mask>
                <use id="Mask" fill="#B38600" xlink:href="#path-3"></use>
                <path d="M33,67 C39,74 49.0903612,66.7815431 49.589461,64.4456323 C51.6070407,55.0028591 52,44 52,44 C52,44 60,16 54,13 C48,10 45,15 45,15 C45,15 47,7.99999984 43,6 C39,4.00000016 35,8 35,8 C35,8 36,3.99999993 32,3 C28,2.00000007 25,6 25,6 C25,6 24,1.99999996 21,2 C18,2.00000004 17,2 17,2 C17,2 27,60 33,67 Z" id="Path-615" fill="#CAA129" mask="url(#mask-4)"></path>
                <path d="M37,36 C37,36 44,20.9999999 45.5,11.5 L45.5,12.5" id="Line" stroke="#5C5768" stroke-width="3" stroke-linecap="round" mask="url(#mask-4)"></path>
                <path d="M35.5,6.5 C33,18 25,32 25,32" id="Line" stroke="#5C5768" stroke-width="3" stroke-linecap="round" mask="url(#mask-4)"></path>
                <path d="M17.5,2.5 L18.5,8.5" id="Line" stroke="#5C5768" stroke-width="3" stroke-linecap="round" mask="url(#mask-4)"></path>
                <circle id="Oval-535" stroke="#5C5768" stroke-width="3" fill="#D8D8D8" mask="url(#mask-4)" cx="32.5" cy="42.5" r="13.5"></circle>
                <circle id="Oval-535" fill="#FFFFFF" mask="url(#mask-4)" cx="35.5" cy="39.5" r="9.5"></circle>
                <path d="M36.7811462,31 C36.7811462,31 32.1510092,32.7142857 34.9290914,37.8571429 L34.9290914,37.8571429 C37.7071735,43 44.1893653,40.4285714 46.0414201,43" id="Path-622" stroke="#FF6619" stroke-width="2" stroke-linecap="round" mask="url(#mask-4)"></path>
                <path d="M22,39 C22,39 17.0000001,41 20,47 L20,47 C22.9999999,53 30,50 32,53" id="Path-622" stroke="#FF6619" stroke-width="2" stroke-linecap="round" mask="url(#mask-4)" transform="translate(25.520710, 46.000000) scale(-1, 1) rotate(-300.000000) translate(-25.520710, -46.000000) "></path>
                <circle id="Oval-535" stroke="#5C5768" stroke-width="3" mask="url(#mask-4)" cx="32.5" cy="42.5" r="13.5"></circle>
                <path d="M5,46.9999996 C5.99999995,31.9999992 13,6.00000002 23,7 C31,9.00000006 23.5476128,24.4733808 24.9757085,39.7070641 C26.3361886,54.2194833 31.0969894,67.536371 35,69" id="Path-616" stroke="#5C5768" stroke-width="3" stroke-linecap="round" stroke-linejoin="round" fill="#B38600" mask="url(#mask-4)"></path>
                <path d="M11,70 C19,80 37,82 44,77 C51,72 52,44 52,44 C52,44 60,15 54,12 C48,9 45,14 45,14 C45,14 47,7.99999984 43,6 C39,4.00000016 35,8 35,8 C35,8 36,3.99999993 32,3 C28,2.00000007 25,6 25,6 C25,6 24,1.99999996 21,2 C18,2.00000004 17,2 17,2 C17,2 15,0 13,0 C11,0 2,17 1,27 C2.02948769e-13,37 5,48 5,48 C5,48 3,60 11,70 Z M8,10 C8,10 10,14 12,16 L10,22 C10,22 4,18 4,16 L8,10 Z M1,28 C1,28 4,32 7,34 C6,37 6,38 4,42 C2.18975152,40.1897515 1,28 1,28 Z" id="Mask" stroke="#5C5768" stroke-width="3" stroke-linecap="round" stroke-linejoin="round"></path>
            </g>
            <g id="shades" transform="translate(54.000000, 92.000000)">
                <g id="lens-R" transform="translate(53.888889, 0.000000)">
                    <path d="M5.48611121,17.4545455 C4.77152454,15.1880536 4.26305375,14.6143778 4.01463673,13.9960748 C2.8580849,11.1174495 0.776291606,11.3159753 0.776291606,11.3159753 L0.776291606,3.5677413 C0.776291606,3.5677413 3.86042982,3.67272885 6.09643002,3.27567709 C8.33243022,2.87862532 11.9562926,-2.04402082e-08 19.4353278,0 C26.9143629,2.04402082e-08 32.6438005,3.16496502 33.8774558,3.56774134 C35.1111111,3.97051766 34.8026973,4.16904354 34.9569042,5.45946178 C35.1111111,6.74988001 35.1111111,8.53661296 35.1111111,9.72776826 C35.1111111,10.9189236 34.7255938,11.2167124 33.8774558,11.2167124 C33.0293178,11.2167124 10.9722223,17.4545455 5.48611121,17.4545455 Z" id="Path" fill="#5C5768"></path>
                    <path d="M8.1778992,6.91212922 C6.94377695,12.9191707 10.9722222,20.7272727 13.1666666,22.8792738 C15.3611109,25.031275 29.6249996,19.6363636 30.7824417,17.4247282 C31.9398838,15.2130928 33.201843,8.65945688 31.2633894,4.94825584 C28.7212379,0.0812652395 9.82686273,-1.11413582 8.1778992,6.91212922 Z" id="Path-375" stroke="#5C5768" stroke-width="3" fill="#987DB3"></path>
                    <path d="M32.6490975,13.3082992 C32.5458971,15.0544042 32.2315935,16.5664908 31.7824417,17.4247282 C30.6249996,19.6363636 14.3611109,26.031275 12.1666666,23.8792738 C9.97222225,21.7272727 5.94377695,12.9191707 7.1778992,6.91212922 C7.80053389,3.88147938 11.024515,2.16561207 14.9334347,1.46573747 C14.2870607,7.19580998 16.157272,13.9087434 18.1666666,15.8792738 C19.6277064,17.3120555 27.3254048,15.3994658 32.6490975,13.3082992 Z" id="Path-375" fill="#5C5768"></path>
                    <path d="M26.5223878,19.1080935 C28.2400243,18.2936331 29.5179349,17.4874841 29.8192855,16.9165205 C30.8722913,14.921409 32.0203835,9.00938848 30.2568372,5.66152219 C28.1929778,1.74355024 14.2822743,0.46313697 10.245824,5.37818595 C15.9268873,3.23867796 25.3003491,4.6828907 26.9651705,7.84334037 C28.7287169,11.1912067 27.5806246,17.1032272 26.5276188,19.0983386 C26.5259066,19.1015827 26.5241629,19.1048343 26.5223878,19.1080935 Z" id="Path-375" fill="#E6CCFF"></path>
                </g>
                <g id="lens-L">
                    <path d="M22.0694433,12 C24.2638878,12 48.1788256,24.4767828 49.6906558,19.6363636 C52.0757561,12 52.7916666,12 56.2268258,12 C59.661985,12 56.2268259,3.5677413 56.2268259,3.5677413 C56.2268259,3.5677413 52.4377418,3.67272885 49.6906558,3.27567709 C46.9435699,2.87862532 42.4913961,-2.04402082e-08 33.3028671,0 C24.1143382,2.04402082e-08 3.03126727,4.16496502 1.51563364,4.56774134 C-2.06057393e-13,4.97051766 0.378908409,5.16904354 0.189454204,6.45946178 C7.10542736e-14,7.74988001 0,9.53661296 0,10.7277683 C0,11.9189236 0.473635511,12.2167124 1.51563364,12.2167124 C1.89714623,12.2167124 19.8749989,12 22.0694433,12 Z" id="Shape" fill="#5C5768"></path>
                    <path d="M19.6737578,6.91212922 C18.1449198,12.9191707 19.7498236,20.7272727 21.944268,22.9090909 C24.1387123,25.0909091 42.7914912,22.9090909 44.9859356,20.7272727 C47.1803801,18.5454545 50.6735688,8.65945688 48.2722009,4.94825584 C45.1229684,0.0812652395 21.7165037,-1.11413582 19.6737578,6.91212922 Z" id="Path-375" stroke="#5C5768" stroke-width="3" fill="#987DB3" transform="translate(34.076301, 12.451869) scale(-1, 1) translate(-34.076301, -12.451869) "></path>
                    <path d="M49.0535763,18.0010866 C48.7217237,20.2286923 48.0946893,22.0278347 47.2083334,22.9090909 C45.013889,25.0909091 24.3611101,23.9090909 22.1666657,21.7272727 C19.9722213,19.5454545 17.4790325,7.65945688 19.8804004,3.94825584 C20.8323484,2.47706497 23.6352569,1.43273042 27.1395501,0.913305697 C26.1797275,5.57026576 28.2832294,13.8546733 30.1666657,15.7272727 C31.7489084,17.3004116 42.4072625,18.3536778 49.0535763,18.0010866 Z" id="Path-375" fill="#5C5768"></path>
                    <path d="M42.7837255,22.5995721 C43.9012034,22.4749686 44.7175512,22.2505022 45.0703425,21.9049612 C47.0840408,19.9326469 48.5567563,12.8742992 47.1538415,7.44406954 C45.2793469,0.188507441 23.8007618,1.26912297 20.9109167,5.66877241 C20.8819716,5.71283988 20.8539599,5.75787044 20.8268664,5.80383567 C27.6961431,3.33417076 42.3297914,3.69452714 43.8621748,9.62588772 C45.0168894,14.0954144 44.2234659,19.6679337 42.7837255,22.5995721 Z" id="Path-375" fill="#E6CCFF"></path>
                </g>
            </g>
        </g>
    </g>
</svg>