<?xml version="1.0" encoding="UTF-8" standalone="no"?>
<svg width="220px" height="220px" viewBox="0 0 220 220" version="1.1" xmlns="http://www.w3.org/2000/svg" xmlns:xlink="http://www.w3.org/1999/xlink">
    <!-- Generator: Sketch 39 (31667) - http://www.bohemiancoding.com/sketch -->
    <title>themes/banana-random</title>
    <desc>Created with Sketch.</desc>
    <defs></defs>
    <g id="Symbols" stroke="none" stroke-width="1" fill="none" fill-rule="evenodd">
        <g id="themes/banana-random">
            <polygon id="panel" fill="#5C5768" transform="translate(102.357840, 143.186839) rotate(-10.000000) translate(-102.357840, -143.186839) " points="63.1665151 133.04035 135.183665 118.865057 147.626851 137.778719 57.0888289 167.508622"></polygon>
            <g id="body" transform="translate(10.000000, 21.000000)">
                <path d="M194.328056,70.6584896 C194.501056,64.7644896 191.270056,59.6584896 185.891056,57.3334896 C180.577056,55.0364896 174.534056,56.1624896 170.495056,60.2004896 C170.051056,60.6454896 169.627056,61.1274896 169.235056,61.6354896 C167.086056,64.4174896 164.726056,67.0984896 162.222056,69.6024896 C161.681056,70.1444896 161.130056,70.6794896 160.570056,71.2094896 C145.296056,85.6724896 125.180056,93.6374896 103.929056,93.6374896 C82.6770564,93.6374896 62.5620564,85.6734896 47.2870564,71.2114896 C44.1510564,68.2424896 41.2360564,65.0204896 38.6210564,61.6354896 C36.1030564,58.3754896 32.5180564,56.4394896 28.5250564,56.1834896 C24.4450564,55.9224896 20.4460564,57.4304896 17.5560564,60.3204896 C14.8420564,63.0324896 13.4150564,66.7044896 13.5350564,70.6584896 L13.5350564,80.6584896 C14.2390564,103.75649 23.6290564,125.47949 39.9760564,141.82649 C57.0100564,158.86149 79.7220564,168.24249 103.928056,168.24249 C128.133056,168.24249 150.845056,158.86149 167.879056,141.82749 C184.227056,125.47949 193.617056,103.75649 194.321056,80.6584896 L194.328056,70.6584896 Z" id="base" fill="#5C5768" transform="translate(103.931366, 112.198470) rotate(-315.000000) translate(-103.931366, -112.198470) "></path>
                <path d="M47.3480934,74.9202245 C44.0110934,71.7612245 40.9840934,68.4042245 38.2660934,64.8852245 C32.3140934,57.1772245 20.0480934,61.6072245 20.3450934,71.3412245 C20.9920934,92.5682245 29.4140934,113.601225 45.6160934,129.803225 C79.2760934,163.464225 134.203093,163.464225 167.863093,129.803225 C184.065093,113.601225 192.487093,92.5682245 193.134093,71.3412245 C193.431093,61.6072245 181.165093,57.1782245 175.212093,64.8852245 C172.494093,68.4032245 169.468093,71.7602245 166.132093,74.9192245 C133.008093,106.283225 80.4730934,106.283225 47.3480934,74.9202245 Z" id="yellow-back" fill="#FFFF00" transform="translate(106.739593, 108.004162) rotate(-315.000000) translate(-106.739593, -108.004162) "></path>
                <path d="M164.285238,105.028968 C132.330238,136.983968 80.5202378,136.983968 48.5652378,105.028968 C36.3992378,92.8629675 28.8792378,77.8179675 25.9772378,62.0889675 C22.5262378,63.6109675 19.8912378,67.0129675 20.0302378,71.5879675 C20.6772378,92.8149675 29.1002378,113.846968 45.3012378,130.049968 C78.9612378,163.710968 133.889238,163.710968 167.549238,130.049968 C183.751238,113.846968 192.173238,92.8149675 192.820238,71.5879675 C192.959238,67.0129675 190.324238,63.6109675 186.873238,62.0889675 C183.971238,77.8179675 176.451238,92.8629675 164.285238,105.028968" id="yellow-shade" fill="#FFD500" transform="translate(106.425238, 108.692343) rotate(-315.000000) translate(-106.425238, -108.692343) "></path>
            </g>
            <g id="bag" transform="translate(91.599531, 93.422616) rotate(-10.000000) translate(-91.599531, -93.422616) translate(40.599531, 18.422616)">
                <path d="M14.9728032,80.4437219 C14.9728032,56.5086895 40.3945399,11.5437399 40.3945399,11.5437399 L101.440012,13.1660591 L96.3682425,31.502982 L92.690905,106.710641 L96.8632698,118.379735 C96.8632698,118.379735 82.0587025,108.511223 64.0419471,108.511229 C46.0251916,108.511234 30.5311657,120.175702 30.5311657,120.175702 C30.5311657,120.175702 14.9728032,104.378754 14.9728032,80.4437219 Z" id="panel" fill="#E6C78A"></path>
                <path d="M24.7662043,106.447225 C24.7662043,106.447225 24.5153681,79.5432201 25.9616352,64.5990995 C26.6282743,57.7107893 31.6296158,34.5744395 31.6296158,34.5744395 L40.9001877,10.8613334 L7.17364818,39.762741 C7.17364818,39.762741 1.26961014,74.5500352 0.751069843,96.1908742 C0.232529548,117.831713 7,148.929577 7,148.929577 L32.8480775,118.553383 L24.7662043,106.447225 Z" id="panel" fill="#BF9A50"></path>
                <path d="M16.0122881,136.184585 C16.0122881,136.184585 10.5673049,108.497399 10.5673049,93.610715 C10.5673049,79.1641747 17.3443923,46.3889443 17.3443923,46.3889443 L7.72704439,40.5395831 C7.72704439,40.5395831 2.34395092,71.068623 0.9571697,96.2097618 C-0.429611516,121.350901 6.06206936,147.881224 6.06206936,147.881224 L16.0122881,136.184585 Z" id="line" fill="#CCAA66"></path>
                <polygon id="panel-shadow" fill="#E1C07E" transform="translate(66.876723, 23.131646) rotate(-350.000000) translate(-66.876723, -23.131646) " points="34.3767227 40.3288289 96.3767227 29.2020684 99.3767227 5.93446273 38.3767227 14.6386881"></polygon>
                <path d="M96.8632698,118.379735 C87.2729568,113.460417 78.770641,108.511229 64.0419471,108.511229 C49.3132531,108.511229 32.8480775,118.553383 32.8480775,118.553383 L6.8137435,147.708758" id="outline" stroke="#5C5768" stroke-width="3"></path>
                <path d="M43.3609844,104.32236 C53.3584458,100.910286 68.8683194,98.613556 75.2995267,99.9146945 C81.7307339,101.215833 85.0817109,104.067662 85.0817109,104.067662" id="line" stroke="#CCAA66" stroke-width="3" stroke-linecap="round"></path>
                <path d="M53.2612588,96.1078314 C59.7084717,95.0190447 65.8802962,94.6213566 69.329186,95.3490558 C75.4958594,96.6501943 78.7090012,99.5020227 78.7090012,99.5020227" id="line" stroke="#CCAA66" stroke-width="3" stroke-linecap="round"></path>
                <polygon id="line" fill="#C7A257" points="7.08953299 41.2411306 16.706881 50.1998687 37.7303317 15.5196965"></polygon>
                <path d="M6.98570156,149.016379 C4.72587101,144.242106 0.0445829324,118.972675 0.563123227,97.3318357 C1.08166352,75.6909967 6.98570156,40.9037025 6.98570156,40.9037025 L40.2222312,11.5112176 L101.267703,13.1335368 L95.6749893,34.424883 L92.5185963,106.678118 L97.4112489,119.309779" id="panel" stroke="#5C5768" stroke-width="3" stroke-linecap="round" stroke-linejoin="round"></path>
            </g>
            <g id="face" transform="translate(72.000000, 69.000000)">
                <path d="M2.05705421,24.9142231 C10.4829801,30.1685873 10.4829801,28.0668416 16.5014987,30.1685873 C22.5200172,32.2703329 24.9274246,32.2703329 34.5570542,31.2194601 C44.1866838,30.1685873 42.9829801,25.9650959 47.7977949,22.8124774 C52.6126098,19.6598589 50.2052024,11.2528761 50.2052024,11.2528761" id="mouth" stroke="#FF6619" stroke-width="3" transform="translate(26.432054, 21.581303) rotate(-350.000000) translate(-26.432054, -21.581303) "></path>
                <path d="M42.8516854,7.56593569 C43.9978413,8.65387205 45.2538266,7.69233071 46.2435383,7.69233071 C48.6959761,7.69233071 48.6959762,5.76924804 48.6959762,2.88462402 C48.6959762,1.47565002 47.6356222,-0.206662029 46.306588,0.386163904 C44.9775539,0.978989837 43.2280226,4.06960785e-14 42.1561417,4.08562073e-14 C40.0608118,4.10163361e-14 39.7037037,3.84616536 39.7037037,5.76924804 C39.7037037,6.91624689 41.7055296,6.47799932 42.8516854,7.56593569 Z" id="eye" fill="#5C5768"></path>
                <path d="M11.9201474,14.9330127 C14.0472481,15.9330127 15.4653152,13.9330127 16.8833823,13.9330127 C18.3014494,13.9330127 19.7195164,10.9330127 19.0104829,8.9330127 C18.3014494,6.9330127 18.3014494,2.9330127 16.1743487,3.9330127 C14.0472481,4.9330127 12.629181,6.93301279 11.2111139,6.9330127 C9.79304679,6.93301261 9.08401324,9.93301232 9.79304679,10.9330127 C10.5020803,11.9330131 9.79304679,13.9330127 11.9201474,14.9330127 Z" id="eye" fill="#5C5768" transform="translate(14.356983, 9.494083) rotate(-330.000000) translate(-14.356983, -9.494083) "></path>
            </g>
        </g>
    </g>
</svg>