<?xml version="1.0" encoding="UTF-8" standalone="no"?>
<svg width="220px" height="220px" viewBox="0 0 220 220" version="1.1" xmlns="http://www.w3.org/2000/svg" xmlns:xlink="http://www.w3.org/1999/xlink">
    <!-- Generator: Sketch 39 (31667) - http://www.bohemiancoding.com/sketch -->
    <title>themes/banana-hillary</title>
    <desc>Created with Sketch.</desc>
    <defs>
        <path d="M35.3480934,61.9202245 C32.0110934,58.7612245 28.9840934,55.4042245 26.2660934,51.8852245 C20.3140934,44.1772245 8.04809337,48.6072245 8.34509337,58.3412245 C8.99209337,79.5682245 17.4140934,100.601225 33.6160934,116.803225 C67.2760934,150.464225 122.203093,150.464225 155.863093,116.803225 C172.065093,100.601225 180.487093,79.5682245 181.134093,58.3412245 C181.431093,48.6072245 169.165093,44.1782245 163.212093,51.8852245 C160.494093,55.4032245 157.468093,58.7602245 154.132093,61.9192245 C121.008093,93.2832245 68.4730934,93.2832245 35.3480934,61.9202245 Z" id="path-1"></path>
        <path d="M104.000001,-1.33582034e-12 C121.999998,16 114.999998,64 29.0000003,31 C-56.9999973,-2 74.0000014,91 124.000001,67 C174.000001,43 180.000001,30 167.000001,11.0000003 C154.000001,-7.99999946 142.000001,11.0000006 104.000001,-1.33582034e-12 Z" id="path-3"></path>
        <path d="M35.3480934,61.9202245 C32.0110934,58.7612245 28.9840934,55.4042245 26.2660934,51.8852245 C20.3140934,44.1772245 8.04809337,48.6072245 8.34509337,58.3412245 C8.99209337,79.5682245 17.4140934,100.601225 33.6160934,116.803225 C67.2760934,150.464225 122.203093,150.464225 155.863093,116.803225 C172.065093,100.601225 180.487093,79.5682245 181.134093,58.3412245 C181.431093,48.6072245 169.165093,44.1782245 163.212093,51.8852245 C160.494093,55.4032245 157.468093,58.7602245 154.132093,61.9192245 C121.008093,93.2832245 68.4730934,93.2832245 35.3480934,61.9202245 Z" id="path-5"></path>
        <path d="M104.000001,-1.33582034e-12 C121.999998,16 114.999998,64 29.0000003,31 C-56.9999973,-2 74.0000014,91 124.000001,67 C174.000001,43 180.000001,30 167.000001,11.0000003 C154.000001,-7.99999946 142.000001,11.0000006 104.000001,-1.33582034e-12 Z" id="path-7"></path>
    </defs>
    <g id="Symbols" stroke="none" stroke-width="1" fill="none" fill-rule="evenodd">
        <g id="themes/banana-hillary">
            <g id="hair" transform="translate(46.000000, 11.000000)">
                <path d="M2.99999999,28.9999999 C17,1.9999999 45.0007973,-3.00000004 61.0007964,2 C99.044352,13.8886118 124.000002,55.9999995 76.0000025,107.999999 C50.0000029,113.000001 -11,55.9999999 2.99999999,28.9999999 Z" id="bangs-back" stroke="#5C5768" stroke-width="4" fill="#FFFFB3"></path>
                <path d="M59.0000007,105 C39.5351603,102.747189 15,92.0000004 25,55.0000001 C74,32.0000002 95,44 91,69.9999991 C89.1647697,81.9289957 75.5017398,106.90987 59.0000007,105 Z" id="bang-swoop" fill="#B3A76B"></path>
            </g>
            <g id="eye-R" transform="translate(104.000000, 81.000000)">
                <path d="M5.01065919,14.2800478 C10.5672027,13.0833879 15.5611176,13.6277639 19.9924039,15.9131759" id="lid-R" stroke="#5C5768" stroke-width="3" stroke-linecap="round" transform="translate(12.501532, 14.788176) rotate(-10.000000) translate(-12.501532, -14.788176) "></path>
                <circle id="Oval-203" fill="#5C5768" cx="13" cy="17" r="4"></circle>
                <path d="M0.935338404,18.6990536 C4.78150574,16.6841458 11.9418465,12.0572079 18.286057,15.0572077 C18.286057,15.0572077 21.0050043,14.0572077 20.0986885,10.0572077 C19.1923727,12.0572077 18.286057,13.0572077 18.286057,13.0572077 C18.286057,13.0572077 19.1923727,11.0572077 18.286057,9.05720775 C17.3797412,12.0572077 16.4734254,12.0572077 16.4734254,12.0572077 C16.4734254,12.0572077 16.4734254,10.0572077 15.5671096,8.05720775 C15.5671096,10.0572077 14.6607938,12.0572077 14.6607938,12.0572077 C14.6607938,12.0572077 14.6607938,9.05720775 13.7544781,7.05720775 C13.7544781,10.0572077 12.8481623,12.0572077 12.8481623,12.0572077 C12.8481623,12.0572077 12.8481623,9.05720775 11.9418465,7.05720775 C11.9418465,10.0572077 11.0355307,12.0572077 11.0355307,12.0572077 C11.0355307,12.0572077 11.0355307,9.05720775 10.1292149,7.05720775 C10.1292149,10.0572077 9.22289916,12.0572077 9.22289916,12.0572077 C9.22289916,12.0572077 9.22289916,10.0572077 8.31658338,8.05720775 C8.31658338,11.0572077 7.4102676,13.0572077 7.4102676,13.0572077 C7.4102676,13.0572077 7.4102676,11.0572077 6.50395182,9.05720775 C6.50395182,12.0572077 5.59763604,14.0572077 5.59763604,14.0572077 C5.59763604,14.0572077 5.59763604,13.0572077 4.69132026,11.0572077 C4.69132026,13.0572077 3.78500448,15.0572077 3.78500448,15.0572077 L0.935338404,18.6990536 Z" id="lid-L" fill="#5C5768" transform="translate(10.609495, 12.878131) rotate(-10.000000) translate(-10.609495, -12.878131) "></path>
                <path d="M6.39250228,25.068287 C10.7628445,25.2437775 14.1850861,23.8988699 15.8888122,22.5539624" id="bag-R" stroke="#5C5768" stroke-width="3" stroke-linecap="round" transform="translate(11.140657, 23.818873) rotate(5.000000) translate(-11.140657, -23.818873) "></path>
                <path d="M2,7 C7,1 17,-2.99999991 18,3" id="brow-R" stroke="#5C5768" stroke-width="3" stroke-linecap="round" stroke-linejoin="round"></path>
            </g>
            <g id="body" transform="translate(10.000000, 29.000000)">
                <circle id="pearl" stroke="#5C5768" stroke-width="3" fill="#F5F5F5" cx="143" cy="109" r="5"></circle>
                <path d="M194.328056,62.6584896 C194.501056,56.7644896 191.270056,51.6584896 185.891056,49.3334896 C180.577056,47.0364896 174.534056,48.1624896 170.495056,52.2004896 C170.051056,52.6454896 169.627056,53.1274896 169.235056,53.6354896 C167.086056,56.4174896 164.726056,59.0984896 162.222056,61.6024896 C161.681056,62.1444896 161.130056,62.6794896 160.570056,63.2094896 C145.296056,77.6724896 125.180056,85.6374896 103.929056,85.6374896 C82.6770564,85.6374896 62.5620564,77.6734896 47.2870564,63.2114896 C44.1510564,60.2424896 41.2360564,57.0204896 38.6210564,53.6354896 C36.1030564,50.3754896 32.5180564,48.4394896 28.5250564,48.1834896 C24.4450564,47.9224896 20.4460564,49.4304896 17.5560564,52.3204896 C14.8420564,55.0324896 13.4150564,58.7044896 13.5350564,62.6584896 L13.5350564,72.6584896 C14.2390564,95.7564896 23.6290564,117.47949 39.9760564,133.82649 C57.0100564,150.86149 79.7220564,160.24249 103.928056,160.24249 C128.133056,160.24249 150.845056,150.86149 167.879056,133.82749 C184.227056,117.47949 193.617056,95.7564896 194.321056,72.6584896 L194.328056,62.6584896 Z" id="base" fill="#5C5768" transform="translate(103.931366, 104.198470) rotate(-315.000000) translate(-103.931366, -104.198470) "></path>
                <g id="nan" transform="translate(12.000000, 5.000000)">
                    <mask id="mask-2" fill="white">
                        <use xlink:href="#path-1"></use>
                    </mask>
                    <use id="Mask" fill="#FFFF00" transform="translate(94.739593, 95.004162) rotate(-315.000000) translate(-94.739593, -95.004162) " xlink:href="#path-1"></use>
                    <path d="M36.3152378,91.9254141 C24.1492378,79.7594141 16.6292378,64.7144141 13.7272378,48.9854141 C10.2762378,50.5074141 6.22702419,53.9094141 6.36602419,58.4844141 C7.01302419,79.7114141 16.143131,101.450521 32.344131,117.653521 C66.004131,151.314521 122.346345,151.314521 156.006345,117.653521 C172.208345,101.450521 181.337451,79.7114141 181.984451,58.4844141 C182.123451,53.9094141 178.074238,50.5074141 174.623238,48.9854141 C171.721238,64.7144141 164.201238,79.7594141 152.035238,91.9254141 C120.080238,123.880414 68.2702378,123.880414 36.3152378,91.9254141 Z" id="yellow-shade" fill="#FFD500" mask="url(#mask-2)" transform="translate(94.175238, 95.942343) rotate(-315.000000) translate(-94.175238, -95.942343) "></path>
                    <g id="suit" mask="url(#mask-2)">
                        <g transform="translate(24.000000, 99.000000)">
                            <mask id="mask-4" fill="white">
                                <use xlink:href="#path-3"></use>
                            </mask>
                            <use id="red" stroke="none" fill="#FF6619" fill-rule="evenodd" xlink:href="#path-3"></use>
                            <path d="M94.8930902,33.3273695 C123.986826,38.6144556 146.493413,33.1719991 162,18 C179.629093,0.751292675 104,1 104,1 C104,1 89.0874793,32.2723394 94.8930902,33.3273695 Z" id="dark-red" stroke="none" fill="#C6602E" fill-rule="evenodd" mask="url(#mask-4)"></path>
                            <path d="M94.8930902,33.3273695 C123.986826,38.6144556 146.493413,33.1719991 162,18" id="line" stroke="#5C5768" stroke-width="3" stroke-linecap="round" stroke-linejoin="round" fill="none" mask="url(#mask-4)"></path>
                        </g>
                    </g>
                </g>
                <path d="M194.328056,62.6584896 C194.501056,56.7644896 191.270056,51.6584896 185.891056,49.3334896 C180.577056,47.0364896 174.534056,48.1624896 170.495056,52.2004896 C170.051056,52.6454896 169.627056,53.1274896 169.235056,53.6354896 C167.086056,56.4174896 164.726056,59.0984896 162.222056,61.6024896 C161.681056,62.1444896 161.130056,62.6794896 160.570056,63.2094896 C145.296056,77.6724896 125.180056,85.6374896 103.929056,85.6374896 C82.6770564,85.6374896 62.5620564,77.6734896 47.2870564,63.2114896 C44.1510564,60.2424896 41.2360564,57.0204896 38.6210564,53.6354896 C36.1030564,50.3754896 32.5180564,48.4394896 28.5250564,48.1834896 C24.4450564,47.9224896 20.4460564,49.4304896 17.5560564,52.3204896 C14.8420564,55.0324896 13.4150564,58.7044896 13.5350564,62.6584896 L13.5350564,72.6584896 C14.2390564,95.7564896 23.6290564,117.47949 39.9760564,133.82649 C57.0100564,150.86149 79.7220564,160.24249 103.928056,160.24249 C128.133056,160.24249 150.845056,150.86149 167.879056,133.82749 C184.227056,117.47949 193.617056,95.7564896 194.321056,72.6584896 L194.328056,62.6584896 Z" id="base" fill="#5C5768" transform="translate(103.931366, 104.198470) rotate(-315.000000) translate(-103.931366, -104.198470) "></path>
                <g id="nan" transform="translate(12.000000, 5.000000)">
                    <mask id="mask-6" fill="white">
                        <use xlink:href="#path-5"></use>
                    </mask>
                    <use id="Mask" fill="#FFFF00" transform="translate(94.739593, 95.004162) rotate(-315.000000) translate(-94.739593, -95.004162) " xlink:href="#path-5"></use>
                    <path d="M36.3152378,91.9254141 C24.1492378,79.7594141 16.6292378,64.7144141 13.7272378,48.9854141 C10.2762378,50.5074141 6.22702419,53.9094141 6.36602419,58.4844141 C7.01302419,79.7114141 16.143131,101.450521 32.344131,117.653521 C66.004131,151.314521 122.346345,151.314521 156.006345,117.653521 C172.208345,101.450521 181.337451,79.7114141 181.984451,58.4844141 C182.123451,53.9094141 178.074238,50.5074141 174.623238,48.9854141 C171.721238,64.7144141 164.201238,79.7594141 152.035238,91.9254141 C120.080238,123.880414 68.2702378,123.880414 36.3152378,91.9254141 Z" id="yellow-shade" fill="#FFD500" mask="url(#mask-6)" transform="translate(94.175238, 95.942343) rotate(-315.000000) translate(-94.175238, -95.942343) "></path>
                    <g id="suit" mask="url(#mask-6)">
                        <g transform="translate(24.000000, 99.000000)">
                            <mask id="mask-8" fill="white">
                                <use xlink:href="#path-7"></use>
                            </mask>
                            <use id="red" stroke="none" fill="#FF6619" fill-rule="evenodd" xlink:href="#path-7"></use>
                            <path d="M94.8930902,33.3273695 C123.986826,38.6144556 146.493413,33.1719991 162,18 C179.629093,0.751292675 104,1 104,1 C104,1 89.0874793,32.2723394 94.8930902,33.3273695 Z" id="dark-red" stroke="none" fill="#C6602E" fill-rule="evenodd" mask="url(#mask-8)"></path>
                            <path d="M94.8930902,33.3273695 C123.986826,38.6144556 146.493413,33.1719991 162,18" id="line" stroke="#5C5768" stroke-width="3" stroke-linecap="round" stroke-linejoin="round" fill="none" mask="url(#mask-8)"></path>
                        </g>
                    </g>
                </g>
                <g id="necklace" transform="translate(72.000000, 110.000000)" stroke="#5C5768" stroke-width="3" fill="#F5F5F5">
                    <circle id="pearl" cx="76" cy="5" r="5"></circle>
                    <circle id="pearl" cx="77" cy="13" r="5"></circle>
                    <circle id="pearl" cx="73" cy="21" r="5"></circle>
                    <circle id="pearl" cx="66" cy="29" r="5"></circle>
                    <circle id="pearl" cx="56" cy="33" r="5"></circle>
                    <circle id="pearl" cx="45" cy="36" r="5"></circle>
                    <circle id="pearl" cx="35" cy="36" r="5"></circle>
                    <circle id="pearl" cx="25" cy="35" r="5"></circle>
                    <circle id="pearl" cx="15" cy="33" r="5"></circle>
                    <circle id="pearl" cx="5" cy="30" r="5"></circle>
                </g>
            </g>
            <g id="mouth" transform="translate(104.500000, 131.000000) rotate(-5.000000) translate(-104.500000, -131.000000) translate(77.000000, 109.000000)" stroke="#5C5768" stroke-width="3">
                <path d="M18,15 C25,24 32.8733613,26 44,26 C48,26 52,24 52,24 C52,24 50,18 47,14" id="teeth" stroke-linecap="round" stroke-linejoin="round" fill="#FFFFB3"></path>
                <path d="M41.5,15.5 L43.5,25.5" id="Line" stroke-linecap="square"></path>
                <path d="M35.5,15.5 L35.5,24.5" id="Line" stroke-linecap="square"></path>
                <path d="M30.5,13.5 L27.5,21.5" id="Line" stroke-linecap="square"></path>
                <path d="M18,14 C25,23 32.8733613,26 44,26 C48,26 49,31 44,31 C40.0074211,31 24,31 15,16" id="bottom-lip" fill="#FF6619"></path>
                <path d="M25,0 C26,10 15,21 0,14" id="cheek" stroke-linecap="round" stroke-linejoin="round"></path>
                <path d="M19,15 C29,11 36,16 40,15 C44,14 52,13 52,13" id="top-lip-bottom" stroke-linecap="round" stroke-linejoin="round"></path>
                <path d="M19,15 C29,11 36,16 40,15 C44,14 52,13 52,13 C52,13 50,7 39,11 C28.0000001,5.00000007 9,19 19,15 Z" id="top-lip-top" stroke-linecap="round" stroke-linejoin="round" fill="#FF6619"></path>
                <path d="M47,31 C57,33 56,44 47,44" id="chin" stroke-linecap="round" stroke-linejoin="round"></path>
                <path d="M16,15 C14,21 14.0000003,29 21,37" id="mouth-line" stroke-linecap="round" stroke-linejoin="round"></path>
            </g>
            <g id="eye-L" transform="translate(50.000000, 81.000000)">
                <path d="M14,33 C15.25,29 19,27 19,27" id="crinkle" stroke="#5C5768" stroke-width="3" stroke-linecap="round" stroke-linejoin="round" transform="translate(16.500000, 30.000000) rotate(20.000000) translate(-16.500000, -30.000000) "></path>
                <path d="M-2.48001115e-13,29 C5.45454545,25 15,25 15,25" id="crinkle" stroke="#5C5768" stroke-width="3" stroke-linecap="round" stroke-linejoin="round"></path>
                <path d="M20,23 C24,19 35,15.0000001 42,18" id="lid-L" stroke="#5C5768" stroke-width="3" stroke-linecap="round"></path>
                <path d="M20,23 C24,19 35,15.0000001 42,18 C42,18 45,17 44,13 C43,15 42,16 42,16 C42,16 43,14 42,12 C41,15 40,15 40,15 C40,15 40,13 39,11 C39,13 38,15 38,15 C38,15 38,12 37,10 C37,13 36,15 36,15 C36,15 36,12 35,10 C35,13 34,15 34,15 C34,15 34,12 33,10 C33,13 32,15 32,15 C32,15 32,13 31,11 C31,14 30,16 30,16 C30,16 30,14 29,12 C29,15 28,17 28,17 C28,17 28,16 27,14 C27,16 26,18 26,18 L20,23 Z" id="lid-L" fill="#5C5768"></path>
                <path d="M25,26.2307692 C32.3846154,29.9230769 38.5384615,27.4615385 41,25" id="bag-L" stroke="#5C5768" stroke-width="3" stroke-linecap="round"></path>
                <circle id="Oval-203" fill="#5C5768" cx="35" cy="20" r="4"></circle>
                <path d="M42,1 C43,4 43,10 35,6 C27,2 17,-3 7,6" id="brow-L" stroke="#5C5768" stroke-width="3" stroke-linecap="round" stroke-linejoin="round"></path>
            </g>
            <g id="hair" transform="translate(1.000000, 12.000000)">
                <path d="M71,54.0000001 C120,31.0000002 140,43 136,68.9999991 C144,43 128,-6.00000148 66,27 C4,60.0000015 57,84.0000001 71,54.0000001 Z" id="bang-swoop" fill="#FFFFB3"></path>
                <path d="M73,39 C83.4423967,36.3894008 83.0115849,5.76064215 104.609135,3.12503587 C76.0000002,-8.00000035 82.0000002,30.0000004 72.0000002,35.9999985 C72.0000002,37.999999 61,42 73,39 Z" id="swoop-color" fill="#B3A76B"></path>
                <path d="M73,39 C85,36 80,-4.00000002 114,4" id="swoop" stroke="#5C5768" stroke-width="3" stroke-linecap="round" stroke-linejoin="round"></path>
                <path d="M72,46 C92,39 87,23 112,21 C123.016667,20.1186666 132.343779,21.7617659 137.350484,24.6457209 C133,19 120.675241,12.354279 103.675241,15.9999999 C86.6752415,19.6457208 91,33.9999986 72,43 C72,44.0000014 72.0000003,44.9999995 72,46 Z" id="swoop-color" fill="#B3A76B"></path>
                <path d="M72,46 C92,39 87,23 112,21 C137,19 143,30 146,39" id="swoop" stroke="#5C5768" stroke-width="3" stroke-linecap="round" stroke-linejoin="round"></path>
                <path d="M69.5637569,54.1879713 C69.5637587,76.9999998 64.9837033,84.7249224 54.9999999,90.9999998 C55.9999999,102 58.9999999,140 85.9999999,142 C83.6874769,158.18766 63,179 29,166 C-5,153 -1.00000012,106 4,89 C-6.00000037,53.9999995 11.0651014,-5.11853245 49.0000015,0.999999992 C69.016297,4.22843482 75.6914193,29.1362772 69.5637569,54.1879713 Z" id="body-color" fill="#FFFFB3"></path>
                <path d="M32,93 C50,88 59,81 59,62 C40,62 34,79.9999999 32,93 Z" id="under" stroke="#5C5768" stroke-width="3" fill="#FFFFB3"></path>
                <path d="M29,95.0000001 C42.0000003,98 52.0000008,92.0000003 54.9999999,90.9999998 C55.9999999,102 58.9999999,140 85.9999999,142 C84.5371831,152.239717 18.9999998,151 29,95.0000001 Z" id="inside-dark" fill="#B3A76B"></path>
                <path d="M71,47 C65,29 23,32.9999993 4,89 C3,86.0000015 2,87.0000015 2,85 C28,11.9999996 77,30.0000002 71,47 Z" id="swoop-color" fill="#B3A76B"></path>
                <path d="M71.5,35 C66,20 36,13.0000004 11,47 C27,8.99999961 71.5,9.00000018 71.5,35 Z" id="swoop-color" fill="#B3A76B"></path>
                <path d="M69.5637569,54.1879713 C69.5637587,76.9999998 64.9837033,84.7249224 54.9999999,90.9999998 C55.9999999,102 58.9999999,140 85.9999999,142 C83.6874769,158.18766 63,179 29,166 C-5,153 -1.15066142e-07,106 4,89 C-6.00000037,53.9999995 11.0651014,-5.11853245 49.0000015,0.999999992 C69.016297,4.22843482 75.6914193,29.1362772 69.5637569,54.1879713 Z" id="body-outline" stroke="#5C5768" stroke-width="4" stroke-linecap="round" stroke-linejoin="round"></path>
                <path d="M68.9999982,59.9999996 C69.9999982,58 69.5613941,55.3082727 70,54 C54.5848167,39.082081 28.7514903,67.1020807 22.8459391,100.080918 C16.8754011,133.422667 51.2072466,161.655953 85.0000038,143 C1.52133309,148.691724 36.0000001,62.9999996 68.9999982,59.9999996 Z" id="swoop" stroke="#5C5768" stroke-width="3" stroke-linecap="round" stroke-linejoin="round" fill="#D8D8D8"></path>
                <path d="M70,54.0000001 C119,31.0000002 140,43 136,68.9999991" id="bang-swoop" stroke="#5C5768" stroke-width="3" stroke-linecap="round" stroke-linejoin="round"></path>
                <path d="M71.5,35 C66,20 36,13.0000004 11,47" id="swoop" stroke="#5C5768" stroke-width="3" stroke-linecap="round" stroke-linejoin="round"></path>
                <path d="M71,47 C65,29 19,34.9999993 4,91" id="swoop" stroke="#5C5768" stroke-width="3" stroke-linecap="round" stroke-linejoin="round"></path>
                <path d="M68,72 C66,83 59,93 36,96" id="sideburn" stroke="#5C5768" stroke-width="4" stroke-linecap="round" stroke-linejoin="round"></path>
                <circle id="earring" stroke="#5C5768" stroke-width="3" fill="#6B77B3" cx="57" cy="118" r="10"></circle>
            </g>
        </g>
    </g>
</svg>