<?xml version="1.0" encoding="UTF-8" standalone="no"?>
<svg width="219px" height="95px" viewBox="0 0 219 95" version="1.1" xmlns="http://www.w3.org/2000/svg" xmlns:xlink="http://www.w3.org/1999/xlink">
    <!-- Generator: Sketch 39 (31667) - http://www.bohemiancoding.com/sketch -->
    <title>app store</title>
    <desc>Created with Sketch.</desc>
    <defs></defs>
    <g id="Page-1" stroke="none" stroke-width="1" fill="none" fill-rule="evenodd">
        <g id="Desktop-HD" transform="translate(-780.000000, -313.000000)" fill="#5C5768">
            <g id="head" transform="translate(396.000000, 156.000000)">
                <g id="title" transform="translate(354.000000, 22.000000)">
                    <path d="M30,139.005718 C30,136.793421 31.7950184,135 33.9999271,135 L245.000073,135 C247.209172,135 249,136.785183 249,139.005718 L249,206.994282 C249,209.206579 247.214528,211 244.991874,211 L96.425606,211 C94.2119794,211 90.8973985,211.937816 89.0095128,213.102549 L63.4079677,228.897451 C61.5257991,230.058657 60.0184673,229.207532 60.041203,227.00077 L60.1648517,214.99923 C60.1876075,212.790516 58.4069874,211 56.2105133,211 L33.9955414,211 C31.7888648,211 30,209.214817 30,206.994282 L30,139.005718 Z M118.666185,190.256 L115.251274,190.256 L113.380667,184.3925 L106.878652,184.3925 L105.096763,190.256 L101.772074,190.256 L108.213941,170.294 L112.192741,170.294 L118.666185,190.256 Z M112.816778,181.9325 L111.125111,176.72 C110.94617,176.1875 110.610844,174.9335 110.116126,172.9595 L110.055978,172.9595 C109.858993,173.8085 109.541711,175.0625 109.105637,176.72 L107.444044,181.9325 L112.816778,181.9325 Z M135.232489,182.882 C135.232489,185.33 134.569356,187.265 133.243089,188.6855 C132.055163,189.95 130.58003,190.5815 128.819193,190.5815 C126.918511,190.5815 125.553148,189.9005 124.7216,188.5385 L124.661452,188.5385 L124.661452,196.121 L121.455556,196.121 L121.455556,180.6005 C121.455556,179.0615 121.414956,177.482 121.336763,175.862 L124.156207,175.862 L124.335148,178.1435 L124.395296,178.1435 C125.46443,176.4245 127.086926,175.5665 129.264289,175.5665 C130.966481,175.5665 132.387481,176.237 133.524281,177.5795 C134.664089,178.9235 135.232489,180.6905 135.232489,182.882 Z M131.966444,182.999 C131.966444,181.598 131.650667,180.443 131.016104,179.534 C130.322896,178.586 129.392104,178.112 128.22523,178.112 C127.434281,178.112 126.715511,178.376 126.07343,178.8965 C125.429844,179.4215 125.008807,180.107 124.811822,180.956 C124.712578,181.352 124.662956,181.676 124.662956,181.931 L124.662956,184.331 C124.662956,185.378 124.984748,186.2615 125.628333,186.983 C126.271919,187.7045 127.107978,188.0645 128.136511,188.0645 C129.343985,188.0645 130.2838,187.5995 130.955956,186.6725 C131.629615,185.744 131.966444,184.52 131.966444,182.999 Z M151.828867,182.882 C151.828867,185.33 151.165733,187.265 149.837963,188.6855 C148.651541,189.95 147.176407,190.5815 145.41557,190.5815 C143.514889,190.5815 142.149526,189.9005 141.319481,188.5385 L141.259333,188.5385 L141.259333,196.121 L138.053437,196.121 L138.053437,180.6005 C138.053437,179.0615 138.012837,177.482 137.934644,175.862 L140.754089,175.862 L140.93303,178.1435 L140.993178,178.1435 C142.060807,176.4245 143.683304,175.5665 145.86217,175.5665 C147.562859,175.5665 148.983859,176.237 150.123667,177.5795 C151.258963,178.9235 151.828867,180.6905 151.828867,182.882 Z M148.562822,182.999 C148.562822,181.598 148.245541,180.443 147.610978,179.534 C146.91777,178.586 145.989985,178.112 144.821607,178.112 C144.029156,178.112 143.311889,178.376 142.668304,178.8965 C142.024719,179.4215 141.605185,180.107 141.4082,180.956 C141.310459,181.352 141.259333,181.676 141.259333,181.931 L141.259333,184.331 C141.259333,185.378 141.581126,186.2615 142.221704,186.983 C142.865289,187.703 143.701348,188.0645 144.732889,188.0645 C145.940363,188.0645 146.880178,187.5995 147.552333,186.6725 C148.225993,185.744 148.562822,184.52 148.562822,182.999 Z M170.38457,184.658 C170.38457,186.356 169.793615,187.7375 168.607193,188.804 C167.303481,189.9695 165.488511,190.5515 163.156267,190.5515 C161.002963,190.5515 159.276711,190.1375 157.969993,189.308 L158.712822,186.6425 C160.120289,187.4915 161.664593,187.9175 163.347237,187.9175 C164.554711,187.9175 165.494526,187.6445 166.169689,187.1015 C166.841844,186.5585 167.17717,185.8295 167.17717,184.9205 C167.17717,184.1105 166.900489,183.428 166.345622,182.8745 C165.793763,182.321 164.871993,181.8065 163.584822,181.331 C160.081193,180.0275 158.330881,178.118 158.330881,175.607 C158.330881,173.966 158.944393,172.6205 160.172919,171.5735 C161.396933,170.525 163.029956,170.0015 165.071985,170.0015 C166.89297,170.0015 168.405696,170.318 169.61317,170.9495 L168.811696,173.5565 C167.683919,172.9445 166.408778,172.6385 164.981763,172.6385 C163.853985,172.6385 162.972815,172.916 162.341259,173.468 C161.807444,173.9615 161.539785,174.563 161.539785,175.2755 C161.539785,176.0645 161.845037,176.717 162.458548,177.23 C162.992363,177.704 163.962252,178.217 165.369719,178.7705 C167.091459,179.462 168.356074,180.2705 169.169578,181.1975 C169.980074,182.1215 170.38457,183.278 170.38457,184.658 Z M180.984178,178.262 L177.450474,178.262 L177.450474,185.2505 C177.450474,187.028 178.073007,187.916 179.321081,187.916 C179.893993,187.916 180.369163,187.8665 180.745089,187.7675 L180.833807,190.196 C180.202252,190.4315 179.370704,190.55 178.340667,190.55 C177.074548,190.55 176.085111,190.1645 175.370852,189.395 C174.6596,188.624 174.301719,187.331 174.301719,185.5145 L174.301719,178.259 L172.196533,178.259 L172.196533,175.859 L174.301719,175.859 L174.301719,173.2235 L177.450474,172.2755 L177.450474,175.859 L180.984178,175.859 L180.984178,178.262 Z M196.927948,182.9405 C196.927948,185.153 196.293385,186.9695 195.027267,188.39 C193.699496,189.8525 191.937156,190.5815 189.740244,190.5815 C187.62303,190.5815 185.937378,189.881 184.680281,188.48 C183.423185,187.079 182.794637,185.3105 182.794637,183.179 C182.794637,180.9485 183.44123,179.1215 184.738926,177.701 C186.033615,176.279 187.780919,175.568 189.97783,175.568 C192.095044,175.568 193.798741,176.2685 195.084407,177.671 C196.314437,179.0315 196.927948,180.788 196.927948,182.9405 Z M193.601756,183.044 C193.601756,181.7165 193.317556,180.578 192.741637,179.6285 C192.069481,178.4795 191.108615,177.9065 189.863548,177.9065 C188.574874,177.9065 187.595963,178.481 186.923807,179.6285 C186.347889,180.5795 186.063689,181.736 186.063689,183.104 C186.063689,184.4315 186.347889,185.57 186.923807,186.518 C187.617015,187.667 188.5854,188.24 189.834978,188.24 C191.058993,188.24 192.019859,187.655 192.713067,186.488 C193.304022,185.5205 193.601756,184.37 193.601756,183.044 Z M207.348615,178.6745 C207.031333,178.616 206.693,178.586 206.338126,178.586 C205.210348,178.586 204.3382,179.0105 203.724689,179.861 C203.190874,180.611 202.923215,181.559 202.923215,182.7035 L202.923215,190.256 L199.718822,190.256 L199.748896,180.395 C199.748896,178.736 199.708296,177.2255 199.6286,175.8635 L202.420978,175.8635 L202.538267,178.6175 L202.626985,178.6175 C202.965319,177.671 203.499133,176.909 204.229933,176.3375 C204.944193,175.823 205.715593,175.5665 206.547141,175.5665 C206.84337,175.5665 207.11103,175.5875 207.348615,175.625 L207.348615,178.6745 Z M221.68643,182.378 C221.68643,182.951 221.648837,183.434 221.569141,183.8285 L211.951452,183.8285 C211.989044,185.2505 212.453689,186.338 213.346889,187.088 C214.157385,187.7585 215.205467,188.0945 216.492637,188.0945 C217.916644,188.0945 219.215844,187.868 220.384222,187.4135 L220.886459,189.6335 C219.521096,190.2275 217.909126,190.523 216.049044,190.523 C213.811533,190.523 212.055207,189.866 210.777059,188.5535 C209.501919,187.241 208.862844,185.4785 208.862844,183.2675 C208.862844,181.097 209.456807,179.2895 210.646237,177.848 C211.891304,176.309 213.573948,175.5395 215.691163,175.5395 C217.770785,175.5395 219.345163,176.309 220.414296,177.848 C221.260881,179.0705 221.68643,180.5825 221.68643,182.378 Z M218.6294,181.5485 C218.650452,180.6005 218.441437,179.7815 218.006867,179.09 C217.452,178.2005 216.5994,177.7565 215.452074,177.7565 C214.403993,177.7565 213.551393,178.19 212.900289,179.06 C212.366474,179.7515 212.049193,180.581 211.951452,181.547 L218.6294,181.547 L218.6294,181.5485 Z M111.756667,158.0135 C111.756667,159.779 111.225859,161.108 110.165748,162.0005 C109.18383,162.824 107.788393,163.2365 105.980941,163.2365 C105.084733,163.2365 104.317844,163.1975 103.675763,163.1195 L103.675763,153.473 C104.513326,153.338 105.415548,153.269 106.389948,153.269 C108.111689,153.269 109.409385,153.6425 110.284541,154.3895 C111.264956,155.234 111.756667,156.4415 111.756667,158.0135 Z M110.095074,158.057 C110.095074,156.9125 109.791326,156.035 109.18383,155.423 C108.576333,154.8125 107.689148,154.5065 106.52077,154.5065 C106.024548,154.5065 105.602007,154.5395 105.251644,154.6085 L105.251644,161.942 C105.445622,161.972 105.800496,161.9855 106.316267,161.9855 C107.522237,161.9855 108.45303,161.651 109.108644,160.982 C109.764259,160.313 110.095074,159.338 110.095074,158.057 Z M120.566867,159.5555 C120.566867,160.643 120.2556,161.534 119.633067,162.233 C118.980459,162.9515 118.11583,163.31 117.03617,163.31 C115.995607,163.31 115.167067,162.9665 114.549044,162.2765 C113.932526,161.588 113.624267,160.7195 113.624267,159.6725 C113.624267,158.5775 113.941548,157.679 114.579119,156.9815 C115.216689,156.284 116.0738,155.9345 117.153459,155.9345 C118.194022,155.9345 119.030081,156.278 119.663141,156.9665 C120.264622,157.6355 120.566867,158.4995 120.566867,159.5555 Z M118.932341,159.6065 C118.932341,158.954 118.790993,158.3945 118.5098,157.928 C118.178985,157.364 117.708326,157.082 117.096319,157.082 C116.463259,157.082 115.982074,157.364 115.651259,157.928 C115.368563,158.3945 115.228719,158.963 115.228719,159.635 C115.228719,160.2875 115.370067,160.847 115.651259,161.3135 C115.9926,161.8775 116.46777,162.1595 117.081281,162.1595 C117.682763,162.1595 118.154926,161.873 118.494763,161.2985 C118.786481,160.823 118.932341,160.259 118.932341,159.6065 Z M132.379963,156.0785 L130.162,163.1495 L128.718444,163.1495 L127.799681,160.079 C127.566607,159.3125 127.377141,158.5505 127.229778,157.7945 L127.201207,157.7945 C127.06437,158.5715 126.874904,159.332 126.631304,160.079 L125.6554,163.1495 L124.195304,163.1495 L122.109667,156.0785 L123.729156,156.0785 L124.53063,159.44 C124.724607,160.235 124.884,160.9925 125.011815,161.7095 L125.040385,161.7095 C125.157674,161.1185 125.351652,160.3655 125.625326,159.455 L126.631304,156.08 L127.915467,156.08 L128.879341,159.383 C129.112415,160.1885 129.301881,160.964 129.447741,161.711 L129.491348,161.711 C129.598111,160.9835 129.759007,160.208 129.972533,159.383 L130.832652,156.08 L132.379963,156.08 L132.379963,156.0785 Z M140.549585,163.1495 L138.973704,163.1495 L138.973704,159.0995 C138.973704,157.8515 138.498533,157.2275 137.545185,157.2275 C137.077533,157.2275 136.700104,157.3985 136.406881,157.742 C136.116667,158.0855 135.969304,158.4905 135.969304,158.954 L135.969304,163.148 L134.393422,163.148 L134.393422,158.099 C134.393422,157.478 134.373874,156.8045 134.336281,156.0755 L135.721193,156.0755 L135.794874,157.181 L135.838481,157.181 C136.021933,156.8375 136.295607,156.554 136.654993,156.3275 C137.082044,156.0635 137.560222,155.93 138.083511,155.93 C138.745141,155.93 139.295496,156.143 139.733074,156.5705 C140.277415,157.094 140.549585,157.8755 140.549585,158.9135 L140.549585,163.1495 L140.549585,163.1495 Z M144.895289,163.1495 L143.320911,163.1495 L143.320911,152.834 L144.895289,152.834 L144.895289,163.1495 Z M154.173141,159.5555 C154.173141,160.643 153.861874,161.534 153.239341,162.233 C152.586733,162.9515 151.7206,163.31 150.642444,163.31 C149.600378,163.31 148.771837,162.9665 148.155319,162.2765 C147.5388,161.588 147.230541,160.7195 147.230541,159.6725 C147.230541,158.5775 147.547822,157.679 148.185393,156.9815 C148.822963,156.284 149.680074,155.9345 150.75823,155.9345 C151.800296,155.9345 152.634852,156.278 153.269415,156.9665 C153.870896,157.6355 154.173141,158.4995 154.173141,159.5555 Z M152.537111,159.6065 C152.537111,158.954 152.395763,158.3945 152.11457,157.928 C151.785259,157.364 151.313096,157.082 150.702593,157.082 C150.06803,157.082 149.586844,157.364 149.257533,157.928 C148.974837,158.3945 148.834993,158.963 148.834993,159.635 C148.834993,160.2875 148.976341,160.847 149.257533,161.3135 C149.598874,161.8775 150.074044,162.1595 150.687556,162.1595 C151.289037,162.1595 151.759696,161.873 152.099533,161.2985 C152.392756,160.823 152.537111,160.259 152.537111,159.6065 Z M161.799926,163.1495 L160.384941,163.1495 L160.267652,162.335 L160.224044,162.335 C159.739852,162.9845 159.049652,163.31 158.153444,163.31 C157.484296,163.31 156.942963,163.0955 156.535459,162.6695 C156.165548,162.2825 155.980593,161.801 155.980593,161.2295 C155.980593,160.3655 156.341481,159.707 157.06777,159.251 C157.792556,158.795 158.812067,158.5715 160.1248,158.582 L160.1248,158.45 C160.1248,157.5185 159.634593,157.0535 158.652674,157.0535 C157.953452,157.0535 157.336933,157.229 156.804622,157.577 L156.484333,156.545 C157.142956,156.1385 157.956459,155.9345 158.915822,155.9345 C160.768385,155.9345 161.697674,156.9095 161.697674,158.8595 L161.697674,161.4635 C161.697674,162.17 161.732259,162.7325 161.799926,163.1495 Z M160.163896,160.7195 L160.163896,159.629 C158.425615,159.599 157.556474,160.0745 157.556474,161.054 C157.556474,161.423 157.655719,161.699 157.858719,161.8835 C158.061719,162.068 158.320356,162.1595 158.628615,162.1595 C158.974467,162.1595 159.297763,162.05 159.592489,161.8325 C159.888719,161.6135 160.070667,161.336 160.138333,160.9955 C160.154874,160.919 160.163896,160.826 160.163896,160.7195 Z M170.754481,163.1495 L169.356037,163.1495 L169.282356,162.014 L169.238748,162.014 C168.792148,162.878 168.031274,163.31 166.962141,163.31 C166.108037,163.31 165.396785,162.9755 164.832896,162.3065 C164.269007,161.6375 163.987815,160.769 163.987815,159.7025 C163.987815,158.558 164.293067,157.631 164.906578,156.923 C165.500541,156.263 166.228333,155.933 167.094467,155.933 C168.046311,155.933 168.712452,156.2525 169.091385,156.893 L169.121459,156.893 L169.121459,152.834 L170.698844,152.834 L170.698844,161.2445 C170.698844,161.933 170.716889,162.5675 170.754481,163.1495 Z M169.121459,160.1675 L169.121459,158.9885 C169.121459,158.7845 169.106422,158.6195 169.077852,158.4935 C168.989133,158.1155 168.798163,157.7975 168.507948,157.541 C168.214726,157.2845 167.861356,157.1555 167.453852,157.1555 C166.865904,157.1555 166.40577,157.388 166.067437,157.8545 C165.732111,158.321 165.562193,158.9165 165.562193,159.644 C165.562193,160.343 165.723089,160.91 166.046385,161.3465 C166.387726,161.8115 166.847859,162.044 167.423778,162.044 C167.941052,162.044 168.35457,161.8505 168.668844,161.462 C168.972593,161.1035 169.121459,160.6715 169.121459,160.1675 Z M184.232178,159.5555 C184.232178,160.643 183.920911,161.534 183.298378,162.233 C182.64577,162.9515 181.782644,163.31 180.701481,163.31 C179.662422,163.31 178.833881,162.9665 178.214356,162.2765 C177.597837,161.588 177.289578,160.7195 177.289578,159.6725 C177.289578,158.5775 177.606859,157.679 178.24443,156.9815 C178.882,156.284 179.739111,155.9345 180.820274,155.9345 C181.859333,155.9345 182.696896,156.278 183.328452,156.9665 C183.929933,157.6355 184.232178,158.4995 184.232178,159.5555 Z M182.599156,159.6065 C182.599156,158.954 182.457807,158.3945 182.176615,157.928 C181.844296,157.364 181.375141,157.082 180.76163,157.082 C180.130074,157.082 179.648889,157.364 179.31657,157.928 C179.033874,158.3945 178.89403,158.963 178.89403,159.635 C178.89403,160.2875 179.035378,160.847 179.31657,161.3135 C179.657911,161.8775 180.133081,162.1595 180.746593,162.1595 C181.348074,162.1595 181.821741,161.873 182.161578,161.2985 C182.451793,160.823 182.599156,160.259 182.599156,159.6065 Z M192.705548,163.1495 L191.13117,163.1495 L191.13117,159.0995 C191.13117,157.8515 190.656,157.2275 189.701148,157.2275 C189.233496,157.2275 188.856067,157.3985 188.564348,157.742 C188.27263,158.0855 188.12677,158.4905 188.12677,158.954 L188.12677,163.148 L186.549385,163.148 L186.549385,158.099 C186.549385,157.478 186.531341,156.8045 186.493748,156.0755 L187.877156,156.0755 L187.950837,157.181 L187.994444,157.181 C188.1794,156.8375 188.453074,156.554 188.810956,156.3275 C189.239511,156.0635 189.716185,155.93 190.240978,155.93 C190.901104,155.93 191.451459,156.143 191.889037,156.5705 C192.434881,157.094 192.705548,157.8755 192.705548,158.9135 L192.705548,163.1495 L192.705548,163.1495 Z M203.31117,157.256 L201.575896,157.256 L201.575896,160.691 C201.575896,161.564 201.884156,162.0005 202.494659,162.0005 C202.777356,162.0005 203.011933,161.9765 203.196889,161.927 L203.237489,163.1195 C202.926222,163.2365 202.517215,163.295 202.013474,163.295 C201.390941,163.295 200.906748,163.106 200.556385,162.728 C200.204519,162.35 200.030089,161.714 200.030089,160.8215 L200.030089,157.256 L198.994037,157.256 L198.994037,156.0785 L200.030089,156.0785 L200.030089,154.7825 L201.574393,154.3175 L201.574393,156.077 L203.309667,156.077 L203.309667,157.256 L203.31117,157.256 Z M211.653719,163.1495 L210.076333,163.1495 L210.076333,159.1295 C210.076333,157.862 209.601163,157.2275 208.649319,157.2275 C207.918519,157.2275 207.419289,157.595 207.145615,158.33 C207.099,158.4845 207.071933,158.6735 207.071933,158.8955 L207.071933,163.148 L205.497556,163.148 L205.497556,152.834 L207.071933,152.834 L207.071933,157.0955 L207.102007,157.0955 C207.59823,156.32 208.309481,155.933 209.231252,155.933 C209.883859,155.933 210.423689,156.146 210.852244,156.5735 C211.386059,157.106 211.653719,157.898 211.653719,158.945 L211.653719,163.1495 L211.653719,163.1495 Z M220.259415,159.2795 C220.259415,159.5615 220.238363,159.7985 220.20077,159.992 L215.47463,159.992 C215.495681,160.691 215.721237,161.2235 216.158815,161.5925 C216.5588,161.9225 217.07457,162.0875 217.706126,162.0875 C218.405348,162.0875 219.042919,161.9765 219.617333,161.753 L219.863941,162.845 C219.191785,163.136 218.400837,163.2815 217.485081,163.2815 C216.387378,163.2815 215.522748,162.959 214.897207,162.314 C214.268659,161.669 213.957393,160.8035 213.957393,159.7175 C213.957393,158.651 214.247607,157.763 214.832548,157.055 C215.443052,156.299 216.268585,155.921 217.310652,155.921 C218.330163,155.921 219.10457,156.299 219.627859,157.055 C220.0504,157.655 220.259415,158.3975 220.259415,159.2795 Z M218.755711,158.873 C218.767741,158.4065 218.663985,158.0045 218.450459,157.6655 C218.176785,157.229 217.760259,157.01 217.19637,157.01 C216.682104,157.01 216.26257,157.223 215.942281,157.6505 C215.680637,157.991 215.525756,158.3975 215.47463,158.873 L218.755711,158.873 Z M83.3035852,172.676 C83.2599778,167.8415 87.2718593,165.4895 87.4553111,165.38 C85.1832148,162.0755 81.6615407,161.624 80.4239926,161.588 C77.4662074,161.2775 74.5971407,163.3535 73.0904296,163.3535 C71.5536444,163.3535 69.2334296,161.618 66.7327704,161.669 C63.5148444,161.7185 60.5044296,163.577 58.853363,166.463 C55.4459704,172.3475 57.9872296,180.995 61.2517704,185.7515 C62.8847926,188.081 64.7929926,190.682 67.2906444,190.5905 C69.734163,190.49 70.6469111,189.0365 73.5956741,189.0365 C76.5173704,189.0365 77.3744815,190.5905 79.9217556,190.532 C82.5442148,190.49 84.1952815,188.192 85.771163,185.8415 C87.6583111,183.1715 88.4161778,180.542 88.4462519,180.407 C88.3846,180.386 83.3532074,178.4705 83.3035852,172.676 Z M78.4917333,158.459 C79.8059704,156.8195 80.7051852,154.589 80.4555704,152.3255 C78.5533852,152.4095 76.1745259,153.638 74.8046519,155.2415 C73.5926667,156.6545 72.51,158.9705 72.7896889,161.1485 C74.9264519,161.3075 77.1203556,160.073 78.4917333,158.459 Z" id="app-store"></path>
                </g>
            </g>
        </g>
    </g>
</svg>