<?xml version="1.0" encoding="UTF-8" standalone="no"?>
<svg width="220px" height="220px" viewBox="0 0 220 220" version="1.1" xmlns="http://www.w3.org/2000/svg" xmlns:xlink="http://www.w3.org/1999/xlink">
    <!-- Generator: Sketch 39 (31667) - http://www.bohemiancoding.com/sketch -->
    <title>themes/banana-basic</title>
    <desc>Created with Sketch.</desc>
    <defs></defs>
    <g id="Symbols" stroke="none" stroke-width="1" fill="none" fill-rule="evenodd">
        <g id="themes/banana-basic">
            <g id="body" transform="translate(10.000000, 21.000000)">
                <path d="M194.328056,70.6584896 C194.501056,64.7644896 191.270056,59.6584896 185.891056,57.3334896 C180.577056,55.0364896 174.534056,56.1624896 170.495056,60.2004896 C170.051056,60.6454896 169.627056,61.1274896 169.235056,61.6354896 C167.086056,64.4174896 164.726056,67.0984896 162.222056,69.6024896 C161.681056,70.1444896 161.130056,70.6794896 160.570056,71.2094896 C145.296056,85.6724896 125.180056,93.6374896 103.929056,93.6374896 C82.6770564,93.6374896 62.5620564,85.6734896 47.2870564,71.2114896 C44.1510564,68.2424896 41.2360564,65.0204896 38.6210564,61.6354896 C36.1030564,58.3754896 32.5180564,56.4394896 28.5250564,56.1834896 C24.4450564,55.9224896 20.4460564,57.4304896 17.5560564,60.3204896 C14.8420564,63.0324896 13.4150564,66.7044896 13.5350564,70.6584896 L13.5350564,80.6584896 C14.2390564,103.75649 23.6290564,125.47949 39.9760564,141.82649 C57.0100564,158.86149 79.7220564,168.24249 103.928056,168.24249 C128.133056,168.24249 150.845056,158.86149 167.879056,141.82749 C184.227056,125.47949 193.617056,103.75649 194.321056,80.6584896 L194.328056,70.6584896 Z" id="base" fill="#5C5768" transform="translate(103.931366, 112.198470) rotate(-315.000000) translate(-103.931366, -112.198470) "></path>
                <path d="M47.3480934,74.9202245 C44.0110934,71.7612245 40.9840934,68.4042245 38.2660934,64.8852245 C32.3140934,57.1772245 20.0480934,61.6072245 20.3450934,71.3412245 C20.9920934,92.5682245 29.4140934,113.601225 45.6160934,129.803225 C79.2760934,163.464225 134.203093,163.464225 167.863093,129.803225 C184.065093,113.601225 192.487093,92.5682245 193.134093,71.3412245 C193.431093,61.6072245 181.165093,57.1782245 175.212093,64.8852245 C172.494093,68.4032245 169.468093,71.7602245 166.132093,74.9192245 C133.008093,106.283225 80.4730934,106.283225 47.3480934,74.9202245 Z" id="yellow-back" fill="#FFFF00" transform="translate(106.739593, 108.004162) rotate(-315.000000) translate(-106.739593, -108.004162) "></path>
                <path d="M164.285238,105.028968 C132.330238,136.983968 80.5202378,136.983968 48.5652378,105.028968 C36.3992378,92.8629675 28.8792378,77.8179675 25.9772378,62.0889675 C22.5262378,63.6109675 19.8912378,67.0129675 20.0302378,71.5879675 C20.6772378,92.8149675 29.1002378,113.846968 45.3012378,130.049968 C78.9612378,163.710968 133.889238,163.710968 167.549238,130.049968 C183.751238,113.846968 192.173238,92.8149675 192.820238,71.5879675 C192.959238,67.0129675 190.324238,63.6109675 186.873238,62.0889675 C183.971238,77.8179675 176.451238,92.8629675 164.285238,105.028968" id="yellow-shade" fill="#FFD500" transform="translate(106.425238, 108.692343) rotate(-315.000000) translate(-106.425238, -108.692343) "></path>
                <path d="M77.9999998,26 C80.9999998,23 89.0000003,23 89,30 C88.9999997,37 93.0000002,34 93.0000002,34 L97.6484097,7.96890563 C97.8425877,6.88150908 97.2089071,5.5684948 96.244854,5.04264766 L88.755146,0.957352336 C87.7858056,0.428621241 86.3947741,0.650538561 85.6438539,1.45804045 C85.6438539,1.45804045 64.8323718,23.8171559 64,25 C63.1676282,26.1828441 65.0000001,28 69,24 C72.9999999,20 77.9999998,20 77.9999998,26 Z" id="hat" fill="#5C5768"></path>
            </g>
            <g id="eyes" transform="translate(77.000000, 97.000000)" fill="#5C5768">
                <circle id="eye-R" cx="41.5" cy="5.5" r="5.5"></circle>
                <circle id="eye-L" cx="5.5" cy="6.5" r="5.5"></circle>
            </g>
            <g id="mouth" transform="translate(79.000000, 129.000000)" stroke-width="4" stroke="#5C5768" stroke-linecap="round">
                <path d="M0,1 C27,18 54,6.00000008 55,6.39488462e-14"></path>
            </g>
        </g>
    </g>
</svg>