<?xml version="1.0" encoding="UTF-8" standalone="no"?>
<svg width="220px" height="220px" viewBox="0 0 220 220" version="1.1" xmlns="http://www.w3.org/2000/svg" xmlns:xlink="http://www.w3.org/1999/xlink">
    <!-- Generator: Sketch 39.1 (31720) - http://www.bohemiancoding.com/sketch -->
    <title>themes/banana-trump</title>
    <desc>Created with Sketch.</desc>
    <defs>
        <path d="M77.2634408,0.155558101 C77.6059502,13.6179455 73.3868608,35.1981229 2.94113761e-07,25" id="path-1"></path>
        <path d="M14.1207267,125.80161 C13.5759659,89.6763236 37.1836048,60.382755 37.1836048,60.382755 C37.1836048,60.382755 45.952508,69.1900592 56.1828985,64.07614 C66.413289,58.9622207 65.5363985,49.5867074 65.5363969,38.506552 C65.5363969,38.506552 81.3365479,47.9104511 93.1185532,53.4044887 C104.900558,58.8985264 132.452168,67.2603608 124.874529,53.5287828 C75.9353764,-35.1547477 6.41348081,7.45635948 19.9362158,41.3830326 C-23.8977717,62.5918625 30.55641,137.879208 0.403966184,114.991872 C3.00229675,123.238758 8.32133164,126.407439 14.1207267,125.80161 Z" id="path-3"></path>
        <mask id="mask-5" maskContentUnits="userSpaceOnUse" maskUnits="objectBoundingBox" x="-4" y="-4" width="133.769257" height="133.076051">
            <rect x="-3.59603382" y="-3.20217152" width="133.769257" height="133.076051" fill="white"></rect>
            <use xlink:href="#path-3" fill="black"></use>
        </mask>
        <path d="M11,14 C18,13.9999998 21,17 26,21 C31,25 36,21 34,17 C32,13 32,11 32,11 C32,11 33.0000007,5 32,7 C30.9999993,9 27.9999993,9 26,7 C24.0000007,5 21,10.9999998 11,14 Z" id="path-6"></path>
        <mask id="mask-7" maskContentUnits="userSpaceOnUse" maskUnits="objectBoundingBox" x="0" y="0" width="23.4515425" height="16.0650175" fill="white">
            <use xlink:href="#path-6"></use>
        </mask>
        <path d="M26,16.7999609 C28.4999548,16.2498318 31,16.7999609 31,16.7999609 C31,16.7999609 31,17.8999805 30.1666667,19 C29.3333333,19 26.8333333,17.3499707 26,16.7999609 Z" id="path-8"></path>
        <mask id="mask-9" maskContentUnits="userSpaceOnUse" maskUnits="objectBoundingBox" x="-2" y="-2" width="9" height="6.4445409">
            <rect x="24" y="14.5554591" width="9" height="6.4445409" fill="white"></rect>
            <use xlink:href="#path-8" fill="black"></use>
        </mask>
        <path d="M14.1952296,8.26991304 C16.6872495,13.592861 20.543386,10.1676138 20.543386,10.1676138 C20.543386,10.1676138 18.3651913,14.8210105 14.4674248,13.2993729 C10.5696583,11.7777354 12.1151752,6.43113168 7.39146353,6.43113202 C2.66775187,6.43113236 1.34588679,10.9101875 1.34588679,10.9101875 C1.34588679,10.9101875 2.78431874,1.61172729 6.89719802,1.61172728 C11.0100773,1.61172728 12.5158289,4.68271743 14.1952296,8.26991304 Z" id="path-10"></path>
        <mask id="mask-11" maskContentUnits="userSpaceOnUse" maskUnits="objectBoundingBox" x="-3" y="-3" width="25.1974992" height="17.9933584">
            <rect x="-1.65411321" y="-1.38827272" width="25.1974992" height="17.9933584" fill="white"></rect>
            <use xlink:href="#path-10" fill="black"></use>
        </mask>
        <path d="M22.094763,9.00236853 C27.0758813,13.8135281 33.3669582,10.0318284 33.3669582,10.0318284 C33.3669582,10.0318284 30.5512507,16.8284885 22.3669582,14.0318284 C18.8757813,12.838856 16.3669582,8.0318284 10.3669582,8.0318284 C4.36695816,8.0318284 1.36695816,13.0318284 1.36695816,13.0318284 C1.36695816,13.0318284 1.00942246,4.77525751 7.90307715,3.55972002 C9.87269234,3.21242367 15.6729194,2.79964204 22.094763,9.00236853 Z" id="path-12"></path>
        <mask id="mask-13" maskContentUnits="userSpaceOnUse" maskUnits="objectBoundingBox" x="-3" y="-3" width="38.0031579" height="17.3162256">
            <rect x="-1.63619971" y="0.390690669" width="38.0031579" height="17.3162256" fill="white"></rect>
            <use xlink:href="#path-12" fill="black"></use>
        </mask>
    </defs>
    <g id="Symbols" stroke="none" stroke-width="1" fill="none" fill-rule="evenodd">
        <g id="themes/banana-trump">
            <g id="Group" transform="translate(106.500000, 116.000000) scale(-1, 1) translate(-106.500000, -116.000000) translate(-6.000000, -7.000000)">
                <g id="body" transform="translate(15.000000, 28.000000)">
                    <path d="M185.571895,58.1040127 C179.44033,56.8122334 174.214895,56.9330127 170.175895,60.9710127 C169.731895,61.4160127 169.307895,61.8980127 168.915895,62.4060127 C166.766895,65.1880127 164.406895,67.8690127 161.902895,70.3730127 C161.361895,70.9150127 160.810895,71.4500127 160.250895,71.9800127 C144.976895,86.4430127 124.860895,94.4080127 103.609895,94.4080127 C82.3578953,94.4080127 62.2428953,86.4440127 46.9678953,71.9820127 C43.8318953,69.0130127 40.9168953,65.7910127 38.3018953,62.4060127 C35.7838953,59.1460127 32.1988953,57.2100127 28.2058953,56.9540127 C24.1258953,56.6930127 20.1268953,58.2010127 17.2368953,61.0910127 C14.5228953,63.8030127 13.0958953,67.4750127 13.2158953,71.4290127 L13.2158953,81.4290127 C13.9198953,104.527013 23.3098953,126.250013 39.6568953,142.597013 C56.6908953,159.632013 79.4028953,169.013013 103.608895,169.013013 C127.813895,169.013013 160.92374,153.054314 178.473716,129.750682 C205.215071,94.2423314 196.60775,60.4290127 185.571895,58.1040127 Z" id="base" fill="#5C5768" transform="translate(104.701889, 112.968993) rotate(-315.000000) translate(-104.701889, -112.968993) "></path>
                    <g id="nan" transform="translate(12.000000, 13.000000)">
                        <path d="M35.5756157,61.7217055 C32.2386157,58.5627055 29.2116157,55.2057055 26.4936157,51.6867055 C20.5416157,43.9787055 8.27561568,48.4087055 8.57261568,58.1427055 C9.21961568,79.3697055 17.6416157,100.402706 33.8436157,116.604706 C67.5036157,150.265706 121.723509,149.558599 155.383509,115.897599 C171.585509,99.6955988 180.007509,80.0768123 180.654509,58.8498123 C180.951509,49.1158123 169.392616,43.9797055 163.439616,51.6867055 C160.721616,55.2047055 157.695616,58.5617055 154.359616,61.7207055 C121.235616,93.0847055 68.7006157,93.0847055 35.5756157,61.7217055 Z" id="yellow" fill="#FFFF00" transform="translate(94.613721, 94.630259) rotate(-315.000000) translate(-94.613721, -94.630259) "></path>
                        <path d="M65.7468719,4.83918074 C63.5536319,5.07930803 61.3765867,6.07343816 59.5740685,7.98941357 C45.021811,23.4566673 36.0455024,44.8078687 35.1044873,67.1975857 C35.1038413,67.2129569 35.1031977,67.2283303 35.1025564,67.2437058 C35.10214,67.3535349 35.1019282,67.4633895 35.1019214,67.5732691 C35.1015778,90.703196 37.8681222,113.215421 53.0000022,128.999999 C69.0106735,145.701274 98.0711025,155.016022 122.544311,155.015659 C135.27957,155.015266 147.679152,152.260726 158.83773,147.315212 C167.320245,142.41458 175.15048,136.382884 181.754342,130.169687 C184.387841,127.692135 185.279658,124.50711 184.865711,121.544966 C184.700612,120.866925 184.495398,120.220327 184.264127,119.624106 C171.09002,128.694165 155.134156,134.015144 137.928833,134.015144 C114.525206,134.015144 93.4162959,123.189584 78.502177,107.43854 C64.6179023,130.672277 33.9999979,96.0000013 55.2123722,76.0937761 C49.2935646,75.6407506 44.3931478,71.2241688 55.4959539,68.8912411 C55.7863385,62.3016921 56.1024367,56.3795591 56.1024367,52.1887469 C56.1024367,34.9834247 61.4234152,19.0275601 70.4934739,5.85345371 C69.1048125,5.31479941 67.4428701,4.91749208 65.7468719,4.83918074 Z" id="yellow-dark" fill="#FFD500"></path>
                        <g id="suit" transform="translate(51.000000, 105.000000)">
                            <path d="M14.5666502,26.5447875 C29.7998552,39.7103285 49.7547511,47.6395921 71.54617,47.6392684 C94.4592582,47.6392684 115.287088,39.7219447 130.754342,25.1696872 C137.84733,18.4967205 132.305734,6.69157278 122.646656,7.93183808 C118.237138,8.4975235 113.723675,8.73157585 109.131017,8.60641795 C97.8594656,8.29879591 87.1043325,5.79748773 77.2801894,1.51708669 C77.2549539,14.142405 71.8011649,32.3310214 14.5666464,26.5447841 Z" id="Combined-Shape" fill="#F5F5F5"></path>
                            <path d="M0.832384525,24.7577408 C1.90605767,26.1562817 3.02694156,27.5183407 4.19485511,28.8400249 C20.1028939,46.8425593 52.0897221,53.6396316 75.54617,52.6392684 C97.9854018,51.682287 115.287088,39.7219447 130.754342,25.1696872 C132.555552,23.4751382 133.542,21.4496318 133.853159,19.3908424 C122.277896,27.4508977 115.250055,32.3858745 87.0000022,33.0000034 C71.7678702,33.3311353 54.0000007,25.9999975 54.0000007,25.9999975 C54.0000007,25.9999975 22.8859318,27.728557 0.832384525,24.7577408 Z" id="Combined-Shape" fill="#6B77B3"></path>
                            <path d="M53,27 C94,38 115,35 136,18" id="Path-2944" stroke="#5C5768" stroke-width="3" stroke-linecap="round" stroke-linejoin="round"></path>
                            <polygon id="Path-2946" stroke="#5C5768" stroke-width="3" stroke-linecap="round" stroke-linejoin="round" fill="#C6602E" points="76.6669734 25.334867 74 12 84.9439144 7.74403328 89 14 87 20"></polygon>
                            <polyline id="Path-2946" stroke="#5C5768" stroke-width="3" stroke-linecap="round" stroke-linejoin="round" points="78 32 74 12 92 5"></polyline>
                            <path d="M45,27 L52,38 L61,35 L64,41 C64,41 79,41 94,34" id="Path-2945" stroke="#5C5768" stroke-width="3" stroke-linecap="round" stroke-linejoin="round"></path>
                            <mask id="mask-2" fill="white">
                                <use xlink:href="#path-1"></use>
                            </mask>
                            <use id="line" stroke="#5C5768" stroke-width="4" xlink:href="#path-1"></use>
                        </g>
                    </g>
                    <path d="M152,132 L150,138 C150,138 185,147 183,118 C171,133 152,132 152,132 Z" id="Path-2946" stroke="#5C5768" stroke-width="3" stroke-linecap="round" stroke-linejoin="round" fill="#C6602E"></path>
                    <path d="M161,96 L155,77 L175,82 C175,82 206,111 177,135 C188,104 161,96 161,96 Z" id="Path-2946" stroke="#5C5768" stroke-width="3" stroke-linecap="round" stroke-linejoin="round" fill="#FF6619"></path>
                </g>
                <g id="hair" transform="translate(84.211714, 84.213828) rotate(-25.000000) translate(-84.211714, -84.213828) translate(20.711714, 21.213828)">
                    <g id="base" transform="translate(0.000000, -0.000000)">
                        <mask id="mask-4" fill="white">
                            <use xlink:href="#path-3"></use>
                        </mask>
                        <g id="Mask">
                            <use fill="#FFD500" fill-rule="evenodd" xlink:href="#path-3"></use>
                            <use stroke="#5C5768" mask="url(#mask-5)" stroke-width="8" stroke-linecap="round" stroke-linejoin="round" xlink:href="#path-3"></use>
                        </g>
                        <path d="M67.7419346,41.5711767 C57.9509277,27.0751953 21.5397619,13.2973021 18.2858372,41.5711764 C4.6060021,47.526909 3.71408,72.4002847 18.2858369,114.503297 C32.8575939,156.606309 44.2250446,77.5831153 54.3402928,75.0434935 C74.3352561,70.023385 77.5329415,56.067158 67.7419346,41.5711767 Z" id="shad" fill="#FFB726" mask="url(#mask-4)"></path>
                    </g>
                    <path d="M38.1509839,63.0406071 C32.3050473,57.9266895 29.3820791,53.380985 24.1207362,59.9154352" id="Path-2918" stroke="#5C5768" stroke-width="3" stroke-linecap="round" stroke-linejoin="round"></path>
                    <path d="M27.390723,44.9166566 C40.3132968,36.5046381 44.1588974,52.5128217 51.2138525,49.0184937 C58.2688075,45.5241656 57.2932512,35.1043566 57.2932512,35.1043566" id="Path-2919" stroke="#5C5768" stroke-width="3" stroke-linecap="round" stroke-linejoin="round"></path>
                    <path d="M31.3161706,51.0666342 C40.6186532,47.6082268 43.6429324,60.1248306 52.7047539,57.3960949 C61.7665754,54.6673591 62.3211318,37.3701258 62.3211318,37.3701258" id="Path-2919" stroke="#5C5768" stroke-width="3" stroke-linecap="round" stroke-linejoin="round"></path>
                    <path d="M92.9100755,28.5546732 C103.507854,35.8526812 100.643907,45.640317 87.7805313,43.5110979" id="Path-2938" stroke="#5C5768" stroke-width="3" stroke-linecap="round" stroke-linejoin="round" transform="translate(93.588497, 36.181152) rotate(-340.000000) translate(-93.588497, -36.181152) "></path>
                    <path d="M79.6363172,18.4297925 C86.6181347,24.4519216 86.5976,33.0728468 81.8028807,36.8335802" id="Path-2939" stroke="#5C5768" stroke-width="3" stroke-linecap="round" stroke-linejoin="round"></path>
                    <g id="bangs" transform="translate(29.000000, 19.000000)">
                        <path d="M80.0045965,26.3649794 C77.7131689,40.7437635 30.8069234,6.82358001 22.5456569,2.8815709 C10.5816369,-2.82727243 -1.61929755,2.647047 1.34391089,13.2352077 C4.24116741,4.27644889 23.2736309,13.1514326 32.8203981,18.7065407 C56.7969954,32.6581313 89.4951742,46.2378012 80.0045965,26.3649794 Z" id="Path-2936" fill="#FFFFB3"></path>
                        <path d="M77.7082877,24.6698713 C84.2356543,33.8548459 71.6084189,30.1734247 61.1765931,24.6698719 C50.7447672,19.1663192 30.6793191,4.92204295 22.968275,1.97526332 C9.8573474,-3.03508468 -1.61929755,2.647047 1.34391089,13.2352077 C8.28901694,5.06061419 22.3673219,12.4942901 39.6482424,22.9937949 C56.929163,33.4932998 60.5543947,34.949248 71.8527045,39.1143601" id="Path-2936" stroke="#5C5768" stroke-width="3" stroke-linecap="round" stroke-linejoin="round"></path>
                    </g>
                </g>
                <g id="mouth" transform="translate(103.000000, 124.000000)">
                    <path d="M26.9356941,42.7266746 C55.0000003,50.9999999 57.0000003,25.9999999 49.0000003,19.9999999" id="chin" stroke="#5C5768" stroke-width="4" stroke-linecap="round" fill="#FFFF00"></path>
                    <path d="M14,5 C20,3 20,-1.99999999 29,2 C39,-1.00000002 34,9.99999974 35,12 C36,14.0000003 46,24.0000002 36,29.0000002 C26,34.0000002 20,23.0000002 13,23.0000002" id="lips-outer" stroke="#5C5768" stroke-width="3" stroke-linecap="round" fill="#FFFF00"></path>
                    <path d="M36,12 C39,17.0000003 45.9688996,26.0113094 35,30.0000002 C24,34.0000002 20,23.0000002 13,23.0000002" id="lip-bottom" stroke="#5C5768" stroke-width="4" stroke-linecap="round"></path>
                    <use id="lips-inner" stroke="#5C5768" mask="url(#mask-7)" stroke-width="8" stroke-linecap="round" stroke-linejoin="round" fill="#C6602E" xlink:href="#path-6"></use>
                    <g id="teeth">
                        <use fill="#FFFFB3" fill-rule="evenodd" xlink:href="#path-8"></use>
                        <use stroke="#5C5768" mask="url(#mask-9)" stroke-width="4" xlink:href="#path-8"></use>
                    </g>
                    <path d="M1.43804937,5.59314944 C-0.561950633,11.5931494 -0.561950345,19.5931494 6.43804937,27.5931494" id="mouth-line" stroke="#5C5768" stroke-width="3" stroke-linecap="round" stroke-linejoin="round" transform="translate(3.362721, 16.593149) scale(-1, 1) translate(-3.362721, -16.593149) "></path>
                </g>
                <g id="eyes" transform="translate(67.000000, 91.000000)">
                    <g id="eye-R" transform="translate(53.000000, 13.000000) scale(-1, 1) translate(-53.000000, -13.000000) translate(42.000000, 0.000000)">
                        <path d="M3.6635905,23.8022276 C6.03985759,22.672926 8.74372201,19.6811126 14.9651274,22.0921269" id="lid-bottom" stroke="#5C5768" stroke-width="4" stroke-linecap="round" transform="translate(9.314359, 22.489955) scale(-1, -1) rotate(-20.000000) translate(-9.314359, -22.489955) "></path>
                        <path d="M3,19 C7,16.3333333 10,16.3333334 14,19" id="eye" stroke="#5C5768" stroke-width="4" stroke-linecap="round" transform="translate(8.500000, 18.000000) scale(-1, 1) translate(-8.500000, -18.000000) "></path>
                        <g id="eyebrow" transform="translate(10.944636, 7.608406) rotate(-350.000000) translate(-10.944636, -7.608406) ">
                            <use fill="#FFB726" fill-rule="evenodd" xlink:href="#path-10"></use>
                            <use stroke="#5C5768" mask="url(#mask-11)" stroke-width="6" stroke-linecap="round" stroke-linejoin="round" xlink:href="#path-10"></use>
                        </g>
                    </g>
                    <g id="eye-L">
                        <path d="M13.0378453,25.2146312 C15.4141124,24.0853295 20.3393822,20.8378638 29.0378453,25.2146312" id="lid-bottom" stroke="#5C5768" stroke-width="4" stroke-linecap="round" transform="translate(21.037845, 24.103979) scale(-1, -1) rotate(-20.000000) translate(-21.037845, -24.103979) "></path>
                        <path d="M12,20 C16,17.3333333 24,17.3333334 28,20" id="eye" stroke="#5C5768" stroke-width="4" stroke-linecap="round" transform="translate(20.000000, 19.000000) scale(-1, 1) translate(-20.000000, -19.000000) "></path>
                        <g id="eyebrow" transform="translate(17.365379, 9.048803) rotate(-350.000000) translate(-17.365379, -9.048803) ">
                            <use fill="#FFB726" fill-rule="evenodd" xlink:href="#path-12"></use>
                            <use stroke="#5C5768" mask="url(#mask-13)" stroke-width="6" stroke-linecap="round" stroke-linejoin="round" xlink:href="#path-12"></use>
                        </g>
                        <path d="M5,25 L9,23" id="Path-2911" stroke="#5C5768" stroke-width="3" stroke-linecap="round" stroke-linejoin="round"></path>
                        <path d="M2,20 L7,20" id="Path-2911" stroke="#5C5768" stroke-width="3" stroke-linecap="round" stroke-linejoin="round"></path>
                    </g>
                </g>
            </g>
        </g>
    </g>
</svg>