<?xml version="1.0" encoding="UTF-8" standalone="no"?>
<svg width="220px" height="220px" viewBox="0 0 220 220" version="1.1" xmlns="http://www.w3.org/2000/svg" xmlns:xlink="http://www.w3.org/1999/xlink">
    <!-- Generator: Sketch 39 (31667) - http://www.bohemiancoding.com/sketch -->
    <title>themes/banana-music</title>
    <desc>Created with Sketch.</desc>
    <defs>
        <path d="M48.6390001,20.7351992 C49.6552571,15.4041 46.6034932,8.97377602 41.8324778,6.37799135 L40.5843909,5.69893994 C36.7701053,3.62368697 30.1701151,1.70507791 25.8190521,1.41200031 L19.8806271,1.01200165 C14.465956,0.647281847 9.22447652,4.67820115 8.17661041,9.99928867 L1.17569058,45.550116 C0.126411751,50.8783774 3.42008262,56.6800688 8.54455942,58.5129375 L11.8719763,59.7030528 C15.9617073,61.1658246 22.8018629,62.5498592 27.1415659,62.7939124 L30.6535713,62.991418 C36.0797036,63.296569 41.3032253,59.2173373 42.3185491,53.8911338 L48.6390001,20.7351992 Z" id="path-1"></path>
        <path d="M48.2226067,21.0139421 C49.2364189,15.6751298 46.1944259,9.23682925 41.432996,6.63625567 L40.4458538,6.0971034 C36.6283691,4.01208901 30.0207228,2.08431195 25.6747844,1.79044907 L20.1313758,1.41561586 C14.713018,1.04923831 9.47367216,5.06941079 8.42752441,10.4022875 L1.59066721,45.2540725 C0.545166331,50.5836518 3.84553559,56.3934411 8.95764709,58.2289482 L11.9605939,59.3071582 C16.0525586,60.7763809 22.883507,62.1657884 27.2234585,62.4107981 L30.4065822,62.5904996 C35.827604,62.8965405 41.04391,58.8175041 42.05788,53.4778609 L48.2226067,21.0139421 Z" id="path-3"></path>
        <mask id="mask-4" maskContentUnits="userSpaceOnUse" maskUnits="objectBoundingBox" x="-4" y="-4" width="55.0201302" height="69.214218">
            <rect x="-2.60263277" y="-2.60756378" width="55.0201302" height="69.214218" fill="white"></rect>
            <use xlink:href="#path-3" fill="black"></use>
        </mask>
        <path d="M7.99999979,5.00000002 C13.6399415,25.2568525 21.0000003,40.9999971 9.57033528,61 C40.0000013,57.0000009 41.9999999,40.9999988 41.9999999,40.9999988 C41.9999999,40.9999988 2.36005809,-15.2568525 7.99999979,5.00000002 Z" id="path-5"></path>
        <path d="M133.559249,76.3283159 C129.569021,78.5536285 135.932981,84.9175907 130.276128,101.888153 C128.53641,107.107309 89.2639306,116.03029 95.6278901,108.252114 C101.99185,100.473938 102.883122,94.9716982 103.406065,93.4028697 C105.527387,87.038908 103.406065,84.9175907 99.8253648,85.294821 C76.7475797,86.6350725 53.2221201,78.8434879 35.3480934,61.9202245 C32.0110934,58.7612245 28.9840934,55.4042245 26.2660934,51.8852245 C20.3140934,44.1772245 8.04809337,48.6072245 8.34509337,58.3412245 C8.99209337,79.5682245 17.4140934,100.601225 33.6160934,116.803225 C67.2760934,150.464225 122.203093,150.464225 155.863093,116.803225 C172.065093,100.601225 180.487093,79.5682245 181.134093,58.3412245 C181.431093,48.6072245 169.165093,44.1782245 163.212093,51.8852245 C160.494093,55.4032245 157.468093,58.7602245 154.132093,61.9192245 C147.87915,67.8399261 140.934485,72.6429543 133.559249,76.3283159 Z" id="path-7"></path>
        <path d="M36.3152378,91.9254141 C24.1492378,79.7594141 16.6292378,64.7144141 13.7272378,48.9854141 C10.2762378,50.5074141 6.93413097,54.6165209 7.07313097,59.1915209 C7.72013097,80.4185209 16.143131,101.450521 32.344131,117.653521 C66.004131,151.314521 122.346345,151.314521 156.006345,117.653521 C172.208345,101.450521 180.630345,79.0043074 181.277345,57.7773074 C181.416345,53.2023074 178.074238,50.5074141 174.623238,48.9854141 C171.721238,64.7144141 164.201238,79.7594141 152.035238,91.9254141 C120.080238,123.880414 68.2702378,123.880414 36.3152378,91.9254141 Z" id="path-9"></path>
        <path d="M60,35 L57,33 L54,38 C54,38 42,40 31,36 C26.6390559,40.9060626 21.4521207,54.8782919 19.7260605,67.4391467 C18.0000003,80.0000016 21.0000003,88.0000016 16.9999999,96.0000016 C14.4964974,101.007006 8.46409254,99.416902 8.46409254,99.416902 C8.46409254,99.416902 13.9999999,94.999998 12.4537054,84.3472926 C10.9074109,73.6945871 3.52314622,44.7839687 5,31 C8,3 44.9999988,0.999999926 60.9999988,6.00000001 C76.9999988,11.0000001 60,35 60,35 Z" id="path-11"></path>
        <path d="M55.2958795,24.9133493 C46.938941,29.4114648 35.6560185,31.6822187 27.9774211,30.2028409 C10.2423251,26.7859529 0.295879441,6.71074128 0.295879455,0.853145013 C15.023257,10.1259383 26.7362877,11.7045668 35.2814666,9.48718669 C54.0000001,2.99999989 66.9999963,15.9999994 55.2958795,24.9133493 Z" id="path-13"></path>
    </defs>
    <g id="Symbols" stroke="none" stroke-width="1" fill="none" fill-rule="evenodd">
        <g id="themes/banana-music">
            <g id="microphone" transform="translate(141.000000, 85.000000)">
                <mask id="mask-2" fill="white">
                    <use xlink:href="#path-1"></use>
                </mask>
                <use id="Mask" fill="#BBBBBB" xlink:href="#path-1"></use>
                <path d="M48.9837573,20.1189766 C49.9976314,14.7798386 46.8023731,8.63731534 41.8644281,6.40716153 L41.1554508,6.08696187 C36.2096798,3.85327353 31.3531672,6.35773472 30.3037529,11.7031099 L24.2603696,42.4861378 C23.2129134,47.8215391 26.6568209,53.1407065 31.9410045,54.364157 L32.4596758,54.4842453 C37.7490295,55.7088929 42.8592002,52.3713598 43.8726794,47.0343014 L48.9837573,20.1189766 Z" id="side" fill="#D8D8D8" mask="url(#mask-2)"></path>
                <g id="lines" mask="url(#mask-2)" stroke-linecap="round">
                    <g transform="translate(1.786885, 0.215190)">
                        <g id="bottom" transform="translate(0.786885, 47.088608)">
                            <path d="M7.08196721,1.56962025 C7.08196721,7.19860323 7.08196721,11.7721519 12.9836066,14.1265823" id="Path-2330" stroke="#5C5768" stroke-width="1.5"></path>
                            <path d="M10.6229508,2.35443038 C10.6229508,7.78481013 11.8032787,13.7341772 20.0655738,15.6962025" id="Path-2330" stroke="#5C5768" stroke-width="1.5"></path>
                            <path d="M14.9508197,3.53164557 C14.9508197,9.14303797 17.704918,15.6962025 28.7213115,16.0886076" id="Path-2330" stroke="#5C5768" stroke-width="1.5"></path>
                            <path d="M3.54098361,0.784810127 C3.54098361,6.22616034 2.75409836,10.2025316 9.44262295,13.3417722" id="Path-2330" stroke="#5C5768" stroke-width="1.5"></path>
                            <path d="M0.393442623,0 C0.393442623,5.10126582 -0.786885246,7.4556962 6.29508197,11.7721519" id="Path-2330" stroke="#5C5768" stroke-width="1.5"></path>
                        </g>
                        <g id="middle" transform="translate(0.000000, 12.556962)">
                            <path d="M8.79845368,30.5249094 C11.812633,30.9625008 15.1635427,31.520116 18.0983607,32.1772152 C25.7378462,33.8876791 38.557377,38.0632911 38.557377,38.0632911 M5.65492394,30.0928693 C2.35912961,29.6641463 4.84955475e-33,29.4303797 0,29.4303797 M9.62817875,26.1461221 C12.7342492,26.4505803 16.1328022,26.8801005 18.8852459,27.4683544 C25.8600036,28.9590039 39.3442623,33.7468354 39.3442623,33.7468354 M6.4558041,25.866308 C3.18664219,25.6080216 0.786885246,25.5063291 0.786885246,25.5063291 M10.3715125,22.2232557 C13.4858003,22.5283794 16.9009576,22.9580293 19.6721311,23.5443038 C26.6687567,25.0245226 40.5245902,29.8227848 40.5245902,29.8227848 M7.19921724,21.9430228 C3.95127897,21.6854605 1.57377049,21.5822785 1.57377049,21.5822785 M11.232972,17.6769935 C14.3853855,17.9109584 17.8064406,18.2742593 20.4590164,18.835443 C27.0998731,20.2403948 41.3114754,25.5063291 41.3114754,25.5063291 M8.04588159,17.4748402 C4.78311475,17.3006386 2.36065574,17.2658228 2.36065574,17.2658228 M12.0945675,13.1300009 C15.3215906,13.4295367 18.8517296,13.8730676 21.6393443,14.5189873 C28.5822352,16.1277285 42.0983607,21.5822785 42.0983607,21.5822785 M8.91845804,12.8699091 C5.59725092,12.6318993 3.14754098,12.556962 3.14754098,12.556962 M12.8773212,8.99910141 C16.1485647,9.22852268 19.7097415,9.60045959 22.4262295,10.2025316 C29.1130284,11.6845683 42.8852459,17.2658228 42.8852459,17.2658228 M9.68754049,8.81115686 C6.38599085,8.65110002 3.93442623,8.63291139 3.93442623,8.63291139 M13.664211,4.84637523 C16.9863569,5.00055185 20.5827406,5.30308983 23.2131148,5.88607595 C29.6059795,7.30296616 43.6721311,13.3417722 43.6721311,13.3417722 M10.4596743,4.73630158 C7.17669985,4.66022052 4.72131148,4.70886076 4.72131148,4.70886076 M14.5217589,0.320755301 C17.7909884,0.544615342 21.332338,0.924619773 24,1.56962025 C30.5845006,3.16165333 44.4590164,9.41772152 44.4590164,9.41772152 M11.3301514,0.142449573 C7.99800334,-0.00468650251 5.50819672,1.16118768e-13 5.50819672,1.16118768e-13" id="Path-2317" stroke="#5C5768" stroke-width="1.5"></path>
                        </g>
                        <g id="top" transform="translate(9.442623, 0.000000)">
                            <path d="M10.6229508,8.24050633 C11.8032787,3.92405063 15.3442623,1.17721519 18.4918033,1.17721519" id="Path-2325" stroke="#5C5768" stroke-width="1.5"></path>
                            <path d="M14.557377,9.02531646 C15.7377049,4.70886076 20.0655738,0.784810177 27.9344262,3.92405072" id="Path-2325" stroke="#5C5768" stroke-width="1.5"></path>
                            <path d="M7.08196721,7.84810127 C8.26229508,3.02382725 11.4098361,0.784810127 14.557377,0.784810127" id="Path-2325" stroke="#5C5768" stroke-width="1.5"></path>
                            <path d="M3.54098361,7.4556962 C4.72131148,3.13924051 7.27868852,0 11.0163934,0" id="Path-2325" stroke="#5C5768" stroke-width="1.5"></path>
                            <path d="M0,7.4556962 C1.18032787,3.13924051 3.14754098,0.784810127 6.29508197,0.784810127" id="Path-2325" stroke="#5C5768" stroke-width="1.5"></path>
                        </g>
                    </g>
                </g>
                <use id="outline" stroke="#5C5768" mask="url(#mask-4)" stroke-width="8" xlink:href="#path-3"></use>
            </g>
            <g id="body" transform="translate(11.000000, 21.000000)">
                <g id="hair-back" transform="translate(40.000000, 109.000000)">
                    <path d="M4.99999989,13.0000001 C10.6399416,33.2568526 15.9999999,46.9999992 0.570335277,65 C34.9999999,64.9999992 42.9999999,49.9999988 42.9999999,49.9999988 C42.9999999,49.9999988 -0.639941802,-7.25685235 4.99999989,13.0000001 Z" id="outline" fill="#5C5768"></path>
                    <mask id="mask-6" fill="white">
                        <use xlink:href="#path-5"></use>
                    </mask>
                    <use id="base" fill="#C6602E" xlink:href="#path-5"></use>
                    <path d="M19,36 C20,44 17,52 17,52 C17,52 21,47 22,39 C23,50 19,56 19,56 C19,56 23,52 25,42 C26.7216348,33.3918261 18,28 19,36 Z" id="Path-2466" fill="#5C5768" mask="url(#mask-6)"></path>
                    <polygon id="Path-2468" fill="#5C5768" mask="url(#mask-6)" points="30 46 29 52 32 47"></polygon>
                    <path d="M27,42 C27,42 26.1415387,48.8569231 25,53 C28,49 29,43.5 29,43.5 L27,42 Z" id="Path-2468" fill="#5C5768" mask="url(#mask-6)"></path>
                </g>
                <path d="M194.328056,70.6584896 C194.501056,64.7644896 191.270056,59.6584896 185.891056,57.3334896 C180.577056,55.0364896 174.534056,56.1624896 170.495056,60.2004896 C170.051056,60.6454896 169.627056,61.1274896 169.235056,61.6354896 C167.086056,64.4174896 164.726056,67.0984896 162.222056,69.6024896 C161.681056,70.1444896 161.130056,70.6794896 160.570056,71.2094896 C153.479844,77.9232345 146.584446,81.9985887 137.937539,85.6059371 C134.245147,87.2608622 134.340343,90.6949595 134.952254,92.2106074 C135.914157,94.5931525 137.073577,104.231424 133.538039,116.252241 C130.906971,125.197863 108.789306,121.20199 108.789306,121.20199 C108.789306,121.20199 113.887011,110.842154 115.153267,107.766959 C120.103011,95.7461413 113.031943,92.9177149 103.929056,93.6374896 C82.6770564,93.6374896 62.5620564,85.6734896 47.2870564,71.2114896 C44.1510564,68.2424896 41.2360564,65.0204896 38.6210564,61.6354896 C36.1030564,58.3754896 32.5180564,56.4394896 28.5250564,56.1834896 C24.4450564,55.9224896 20.4460564,57.4304896 17.5560564,60.3204896 C14.8420564,63.0324896 13.4150564,66.7044896 13.5350564,70.6584896 L13.5350564,80.6584896 C14.2390564,103.75649 23.6290564,125.47949 39.9760564,141.82649 C57.0100564,158.86149 79.7220564,168.24249 103.928056,168.24249 C128.133056,168.24249 150.845056,158.86149 167.879056,141.82749 C184.227056,125.47949 193.617056,103.75649 194.321056,80.6584896 L194.328056,70.6584896 Z" id="base" fill="#5C5768" transform="translate(103.931366, 112.198470) rotate(-315.000000) translate(-103.931366, -112.198470) "></path>
                <g id="yellow" transform="translate(12.000000, 13.000000)">
                    <mask id="mask-8" fill="white">
                        <use xlink:href="#path-7"></use>
                    </mask>
                    <use id="Mask" fill="#FFFF00" transform="translate(94.739593, 95.004162) rotate(-315.000000) translate(-94.739593, -95.004162) " xlink:href="#path-7"></use>
                    <path d="M36.3152378,91.9254141 C24.1492378,79.7594141 16.6292378,64.7144141 13.7272378,48.9854141 C10.2762378,50.5074141 6.93413097,54.6165209 7.07313097,59.1915209 C7.72013097,80.4185209 16.143131,101.450521 32.344131,117.653521 C66.004131,151.314521 122.346345,151.314521 156.006345,117.653521 C172.208345,101.450521 180.630345,79.0043074 181.277345,57.7773074 C181.416345,53.2023074 178.074238,50.5074141 174.623238,48.9854141 C171.721238,64.7144141 164.201238,79.7594141 152.035238,91.9254141 C120.080238,123.880414 68.2702378,123.880414 36.3152378,91.9254141 Z" id="yellow-shade" fill="#FFD500" mask="url(#mask-8)" transform="translate(94.175238, 95.942343) rotate(-315.000000) translate(-94.175238, -95.942343) "></path>
                    <path d="M62,7 C62,7 53.0777392,24.6562315 48,44 C42.9222608,63.3437685 41,92 41,92 C41,92 49.7486411,82.5759512 53.6229617,79.8639268 C56.4153078,77.9092846 60,75 60,75 C60,75 58.1128171,86.3581444 57.6692256,89.5372166 C56.1128171,100.691478 56,121 56,121 C56,121 64.687686,91.9788003 70.531529,80.4682005 C75.687686,70.3121337 88,59 88,59 C88,59 76.521537,60.0395808 72.7823054,61.0593712 C69.1882036,62.0395808 62,65 62,65 C62,65 65.080031,48.1199013 67,42 C70.4133643,31.1199013 79,13 79,13 L62,7 Z" id="ziggy-purp" fill="#987DB3" mask="url(#mask-8)"></path>
                    <path d="M64,7 C64,7 56.0777392,24.6562315 51,44 C45.9222608,63.3437685 44,89 44,89 C44,89 51.7486411,82.5759512 55.6229617,79.8639268 C58.4153078,77.9092846 64,75 64,75 C64,75 61.1128171,86.3581444 60.6692256,89.5372166 C59.1128171,100.691478 58,121 58,121 C58,121 66.687686,91.9788003 72.531529,80.4682005 C77.687686,70.3121337 91,56 91,56 C91,56 79.521537,57.0395808 75.7823054,58.0593712 C72.1882036,59.0395808 65,62 65,62 C65,62 67.080031,48.1199013 69,42 C72.4133643,31.1199013 81,13 81,13 L64,7 Z" id="ziggy" fill="#FF6619" mask="url(#mask-8)"></path>
                    <mask id="mask-10" fill="white">
                        <use xlink:href="#path-9"></use>
                    </mask>
                    <use id="Mask" fill="#FFD500" transform="translate(94.175238, 95.942343) rotate(-315.000000) translate(-94.175238, -95.942343) " xlink:href="#path-9"></use>
                    <path d="M62,7 C62,7 53.0777392,24.6562315 48,44 C42.9222608,63.3437685 41,92 41,92 C41,92 49.7486411,82.5759512 53.6229617,79.8639268 C56.4153078,77.9092846 60,75 60,75 C60,75 58.1128171,86.3581444 57.6692256,89.5372166 C56.9508642,94.6854731 56.7530587,101.783853 56.7483151,107.935466 C56.7427811,115.111997 58,121 58,121 C58,121 64.687686,91.9788003 70.531529,80.4682005 C75.687686,70.3121337 88,58 88,58 C88,58 77.521537,59.0395808 73.7823054,60.0593712 C70.1882036,61.0395808 63,64 63,64 C63,64 65.080031,48.1199013 67,42 C70.4133643,31.1199013 79,13 79,13 L62,7 Z" id="ziggy-dark-purp" fill="#826B99" mask="url(#mask-10)"></path>
                    <path d="M64,7 C64,7 56.0777392,24.6562315 51,44 C45.9222608,63.3437685 44,89 44,89 C44,89 51.7486411,82.5759512 55.6229617,79.8639268 C58.4153078,77.9092846 64,75 64,75 C64,75 61.1128171,86.3581444 60.6692256,89.5372166 C59.1128171,100.691478 58,121 58,121 C58,121 66.687686,91.9788003 72.531529,80.4682005 C77.687686,70.3121337 91,56 91,56 C91,56 79.521537,57.0395808 75.7823054,58.0593712 C72.1882036,59.0395808 65,62 65,62 C65,62 67.080031,48.1199013 69,42 C72.4133643,31.1199013 81,13 81,13 L64,7 Z" id="ziggy-dark" fill="#C6602E" mask="url(#mask-10)"></path>
                </g>
                <g id="hair" transform="translate(29.000000, 0.000000)">
                    <path d="M63,37 L57,36 L54,40 C54,40 45.0000019,42.9999995 33,40 C29.419263,44.0283295 24.4412357,55.4691901 22.8105378,67.2386507 C20.7979678,81.7642487 24.9999995,92.9999995 18,99.9999995 C12.5676047,105.432395 2.00000002,101 2.00000002,101 C2.00000002,101 9.00000039,95.9999995 8.99999992,87.9999995 C8.99999946,79.9999995 -0.536655632,50.3421192 1,31 C3.23628035,2.85159751 35.9999984,-2.99999992 59.9999988,2.00000001 C83.9999991,6.99999995 63,37 63,37 Z" id="black" fill="#5C5768"></path>
                    <mask id="mask-12" fill="white">
                        <use xlink:href="#path-11"></use>
                    </mask>
                    <use id="Mask" fill="#C6602E" xlink:href="#path-11"></use>
                    <path d="M62.0000029,35.9999996 L57.0000008,34.0000008 C57.0000008,34.0000008 46.0803765,39.3400314 42,39 C30,38 22,32 18,28 C14,24 5.99999996,24.9999999 4,30 C2.00000004,35.0000001 -1.0000046,-2.99999996 48.9999977,-4 C98.9999999,-5.00000004 62.0000029,35.9999996 62.0000029,35.9999996 Z" id="sheen" fill="#FF6619" mask="url(#mask-12)"></path>
                    <g id="flicks" mask="url(#mask-12)" fill="#5C5768">
                        <g transform="translate(31.000000, 15.000000)" id="flick">
                            <path d="M25,19 C21,11 27,6 27,6 C27,6 23,16 29,19 C35,22 29,21 25,19 Z"></path>
                            <path d="M23,23 C16,17 0,3 0,3 C0,3 12,19 19,25 C20,26 22,23 23,23 Z"></path>
                            <path d="M24,21 C19.0000001,16 10,0 10,0 C10,0 13,15 23,24 C24,23 25,22 24,21 Z"></path>
                            <path d="M27,20 C19,15 21,1 21,1 C21,1 15,13 24,22 C25,21 25.0000001,19 27,20 Z"></path>
                            <path d="M19,23 C11,22 3,17 3,17 C3,17 7,22 14,25 C16,25 18,24 19,23 Z"></path>
                        </g>
                    </g>
                    <path d="M34,37 L24,33 L30,38 L20,35 L29,40 L16,38 L27,43 L16,41 L26,45 L15,44 L26,47 L14,47 L25,49 L15,49 L24,51 L15,52 L24,54 L15,55 L23,56 L14,57 L22,58 L14,59 L22,60 L14,61 L21,62 L15,63 L20,64 L14,65 L21,66 L14,68 L20,69 L15,70 L20,71 L16,72 L20,73 L16,74 L20,75 L15,76 L20,77 L15,79 L20,79 L15,81 L20,81 L15,84 L20,83 L15,87 L20,85 L15,89 L19,88 L15,93 L20,91 L14,96 C14,96 19,95 20,94 C21,93 20,72 23,61 C26,50 34,37 34,37 Z" id="side-shade-slicks" fill="#5C5768" mask="url(#mask-12)"></path>
                    <path d="M23,22 C23,22 13.0000004,15.9999997 6,21 C-1.00000045,26.0000003 18.9999997,2 35.0000016,1 C41.2121351,0.6117417 46.0000015,-3.00000002 46.0000015,-3.00000002 L46.0000015,6.00000022 C46.0000015,6.00000022 43.0000015,0.999999984 33.9999996,2.22744347e-07 C40.9999999,5.00000045 41.0000015,8.00000022 41.0000015,8.00000022 C41.0000015,8.00000022 36.9999993,3.00000001 24.9999996,0.999999999 C31.9999996,2.99999998 35.0000015,9.99999975 35.0000015,9.99999975 C35.0000015,9.99999975 27.9999996,2.99999998 16.9999996,5.00000022 C26.1837548,6.00000022 29.9999996,12.9999997 29.9999996,12.9999997 C29.9999996,12.9999997 21.9999996,7.00000022 12,9 C-3.00000019,8.99999975 6.0000011,12.9999997 13.0000004,10.9999997 C19.9999996,8.99999975 26,17 26,17 C26,17 17.3109011,11.2331761 9.58636128,13.8336689 C1.86182143,16.4341616 8.19623906,13.941128 7.99999999,13.9999997 C-1.99999935,16.9999997 0.999999529,16.0000012 10,16 C19.0000005,15.9999988 23,22 23,22 Z" id="top-slicks" fill="#C6602E" mask="url(#mask-12)"></path>
                </g>
            </g>
            <g id="eyes" transform="translate(75.000000, 97.000000)" stroke="#5C5768" stroke-width="8" stroke-linecap="round">
                <path d="M0.564035718,6.73193161 C0.564035718,6.73193161 11.7202857,-1.51806839 17.5640357,6.73193161" id="Line" transform="translate(9.064036, 4.898598) rotate(-10.000000) translate(-9.064036, -4.898598) "></path>
                <path d="M39,4.66666667 C39,4.66666667 46.875,-1.33333333 51,4.66666667" id="Line" transform="translate(45.000000, 3.333333) rotate(-350.000000) translate(-45.000000, -3.333333) "></path>
            </g>
            <g id="mouth" transform="translate(78.000000, 130.000000)">
                <path d="M59.5917589,27.0526395 C50.1954446,32.1101982 38.6336061,34.6633722 30,33 C10.0591403,29.158144 -1.4950035e-08,6.58612197 -2.22044605e-16,-7.10542736e-15 C16.5590629,10.4260766 28.6045033,12.2010436 38.2124701,9.7078817 C39,20 46,26 59.5917589,27.0526395 Z" stroke="#5C5768" stroke-width="4" stroke-linecap="round" stroke-linejoin="round" fill="#826B99"></path>
                <g id="Mask-+-tongue" transform="translate(2.000000, 1.000000)">
                    <mask id="mask-14" fill="white">
                        <use xlink:href="#path-13"></use>
                    </mask>
                    <g id="Mask"></g>
                    <ellipse id="throat" fill="#5C5768" mask="url(#mask-14)" cx="15" cy="22" rx="9" ry="8"></ellipse>
                    <path d="M33,38 C36.0000009,24.0000002 52.0000007,26.0000002 48,17 C43.9999993,7.99999975 18,18.9999999 15,31 C12,43.0000001 32.0665291,42.3561961 33,38 Z" id="tongue" stroke="#5C5768" stroke-width="4" fill="#FF6619" mask="url(#mask-14)"></path>
                </g>
            </g>
        </g>
    </g>
</svg>