<?xml version="1.0" encoding="UTF-8" standalone="no"?>
<svg width="220px" height="220px" viewBox="0 0 220 220" version="1.1" xmlns="http://www.w3.org/2000/svg" xmlns:xlink="http://www.w3.org/1999/xlink">
    <!-- Generator: Sketch 39.1 (31720) - http://www.bohemiancoding.com/sketch -->
    <title>themes/banana-hillary</title>
    <desc>Created with Sketch.</desc>
    <defs>
        <circle id="path-1" cx="13.5" cy="16.5" r="4.5"></circle>
        <mask id="mask-2" maskContentUnits="userSpaceOnUse" maskUnits="objectBoundingBox" x="0" y="0" width="9" height="9" fill="white">
            <use xlink:href="#path-1"></use>
        </mask>
        <circle id="path-3" cx="35.5" cy="20.5" r="4.5"></circle>
        <mask id="mask-4" maskContentUnits="userSpaceOnUse" maskUnits="objectBoundingBox" x="0" y="0" width="9" height="9" fill="white">
            <use xlink:href="#path-3"></use>
        </mask>
    </defs>
    <g id="Symbols" stroke="none" stroke-width="1" fill="none" fill-rule="evenodd">
        <g id="themes/banana-hillary">
            <g id="hair" transform="translate(46.000000, 11.000000)">
                <path d="M2.99999999,28.9999999 C17,1.9999999 45.0007973,-3.00000004 61.0007964,2 C99.044352,13.8886118 124.000002,55.9999995 76.0000025,107.999999 C50.0000029,113.000001 -11,55.9999999 2.99999999,28.9999999 Z" id="bangs-back" stroke="#5C5768" stroke-width="4" fill="#FFFFB3"></path>
                <path d="M59.0000007,105 C39.5351603,102.747189 15,92.0000004 25,55.0000001 C74,32.0000002 95,44 91,69.9999991 C89.1647697,81.9289957 75.5017398,106.90987 59.0000007,105 Z" id="bang-swoop" fill="#B3A76B"></path>
            </g>
            <g id="eye-R" transform="translate(104.000000, 81.000000)">
                <path d="M5.01065919,14.2800478 C10.5672027,13.0833879 15.5611176,13.6277639 19.9924039,15.9131759" id="lid-R" stroke="#5C5768" stroke-width="3" stroke-linecap="round" transform="translate(12.501532, 14.788176) rotate(-10.000000) translate(-12.501532, -14.788176) "></path>
                <use id="Oval-203" stroke="#5C5768" mask="url(#mask-2)" stroke-width="6" fill="#6B77B3" xlink:href="#path-1"></use>
                <path d="M0.935338404,18.6990536 C4.78150574,16.6841458 11.9418465,12.0572079 18.286057,15.0572077 C18.286057,15.0572077 21.0050043,14.0572077 20.0986885,10.0572077 C19.1923727,12.0572077 18.286057,13.0572077 18.286057,13.0572077 C18.286057,13.0572077 19.1923727,11.0572077 18.286057,9.05720775 C17.3797412,12.0572077 16.4734254,12.0572077 16.4734254,12.0572077 C16.4734254,12.0572077 16.4734254,10.0572077 15.5671096,8.05720775 C15.5671096,10.0572077 14.6607938,12.0572077 14.6607938,12.0572077 C14.6607938,12.0572077 14.6607938,9.05720775 13.7544781,7.05720775 C13.7544781,10.0572077 12.8481623,12.0572077 12.8481623,12.0572077 C12.8481623,12.0572077 12.8481623,9.05720775 11.9418465,7.05720775 C11.9418465,10.0572077 11.0355307,12.0572077 11.0355307,12.0572077 C11.0355307,12.0572077 11.0355307,9.05720775 10.1292149,7.05720775 C10.1292149,10.0572077 9.22289916,12.0572077 9.22289916,12.0572077 C9.22289916,12.0572077 9.22289916,10.0572077 8.31658338,8.05720775 C8.31658338,11.0572077 7.4102676,13.0572077 7.4102676,13.0572077 C7.4102676,13.0572077 7.4102676,11.0572077 6.50395182,9.05720775 C6.50395182,12.0572077 5.59763604,14.0572077 5.59763604,14.0572077 C5.59763604,14.0572077 5.59763604,13.0572077 4.69132026,11.0572077 C4.69132026,13.0572077 3.78500448,15.0572077 3.78500448,15.0572077 L0.935338404,18.6990536 Z" id="lid-L" fill="#5C5768" transform="translate(10.609495, 12.878131) rotate(-10.000000) translate(-10.609495, -12.878131) "></path>
                <path d="M6.39250228,25.068287 C10.7628445,25.2437775 14.1850861,23.8988699 15.8888122,22.5539624" id="bag-R" stroke="#5C5768" stroke-width="3" stroke-linecap="round" transform="translate(11.140657, 23.818873) rotate(5.000000) translate(-11.140657, -23.818873) "></path>
                <path d="M2,7 C7,1 17,-2.99999991 18,3" id="brow-R" stroke="#5C5768" stroke-width="3" stroke-linecap="round" stroke-linejoin="round"></path>
            </g>
            <g id="body" transform="translate(10.000000, 29.000000)">
                <circle id="pearl" stroke="#5C5768" stroke-width="3" fill="#F5F5F5" cx="143" cy="109" r="5"></circle>
                <path d="M194.328056,62.6584896 C194.501056,56.7644896 191.270056,51.6584896 185.891056,49.3334896 C180.577056,47.0364896 174.534056,48.1624896 170.495056,52.2004896 C170.051056,52.6454896 169.627056,53.1274896 169.235056,53.6354896 C167.086056,56.4174896 164.726056,59.0984896 162.222056,61.6024896 C161.681056,62.1444896 161.130056,62.6794896 160.570056,63.2094896 C145.296056,77.6724896 125.180056,85.6374896 103.929056,85.6374896 C82.6770564,85.6374896 62.5620564,77.6734896 47.2870564,63.2114896 C44.1510564,60.2424896 41.2360564,57.0204896 38.6210564,53.6354896 C36.1030564,50.3754896 32.5180564,48.4394896 28.5250564,48.1834896 C24.4450564,47.9224896 20.4460564,49.4304896 17.5560564,52.3204896 C14.8420564,55.0324896 13.4150564,58.7044896 13.5350564,62.6584896 L13.5350564,72.6584896 C14.2390564,95.7564896 23.6290564,117.47949 39.9760564,133.82649 C57.0100564,150.86149 79.7220564,160.24249 103.928056,160.24249 C128.133056,160.24249 150.845056,150.86149 167.879056,133.82749 C184.227056,117.47949 193.617056,95.7564896 194.321056,72.6584896 L194.328056,62.6584896 Z" id="base" fill="#5C5768" transform="translate(103.931366, 104.198470) rotate(-315.000000) translate(-103.931366, -104.198470) "></path>
                <path d="M194.328056,62.6584896 C194.501056,56.7644896 191.270056,51.6584896 185.891056,49.3334896 C180.577056,47.0364896 174.534056,48.1624896 170.495056,52.2004896 C170.051056,52.6454896 169.627056,53.1274896 169.235056,53.6354896 C167.086056,56.4174896 164.726056,59.0984896 162.222056,61.6024896 C161.681056,62.1444896 161.130056,62.6794896 160.570056,63.2094896 C145.296056,77.6724896 125.180056,85.6374896 103.929056,85.6374896 C82.6770564,85.6374896 62.5620564,77.6734896 47.2870564,63.2114896 C44.1510564,60.2424896 41.2360564,57.0204896 38.6210564,53.6354896 C36.1030564,50.3754896 32.5180564,48.4394896 28.5250564,48.1834896 C24.4450564,47.9224896 20.4460564,49.4304896 17.5560564,52.3204896 C14.8420564,55.0324896 13.4150564,58.7044896 13.5350564,62.6584896 L13.5350564,72.6584896 C14.2390564,95.7564896 23.6290564,117.47949 39.9760564,133.82649 C57.0100564,150.86149 79.7220564,160.24249 103.928056,160.24249 C128.133056,160.24249 150.845056,150.86149 167.879056,133.82749 C184.227056,117.47949 193.617056,95.7564896 194.321056,72.6584896 L194.328056,62.6584896 Z" id="base" fill="#5C5768" transform="translate(103.931366, 104.198470) rotate(-315.000000) translate(-103.931366, -104.198470) "></path>
                <g id="nan" transform="translate(12.000000, 5.000000)">
                    <path d="M35.3480934,61.9202245 C32.0110934,58.7612245 28.9840934,55.4042245 26.2660934,51.8852245 C20.3140934,44.1772245 8.04809337,48.6072245 8.34509337,58.3412245 C8.99209337,79.5682245 17.4140934,100.601225 33.6160934,116.803225 C67.2760934,150.464225 122.203093,150.464225 155.863093,116.803225 C172.065093,100.601225 180.487093,79.5682245 181.134093,58.3412245 C181.431093,48.6072245 169.165093,44.1782245 163.212093,51.8852245 C160.494093,55.4032245 157.468093,58.7602245 154.132093,61.9192245 C121.008093,93.2832245 68.4730934,93.2832245 35.3480934,61.9202245 Z" id="yellow" fill="#FFFF00" transform="translate(94.739593, 95.004162) rotate(-315.000000) translate(-94.739593, -95.004162) "></path>
                    <path d="M65.7468719,4.83918074 C63.5536319,5.07930803 61.3765867,6.07343816 59.5740685,7.98941357 C45.021811,23.4566673 36.1044873,44.2844975 36.1044873,67.1975857 C36.1037802,114.800721 74.9430344,153.639975 122.54617,153.639268 C145.459258,153.639268 166.287088,144.721945 181.754342,130.169687 C184.387841,127.692135 185.279658,124.50711 184.865711,121.544966 C184.700612,120.866925 184.495398,120.220327 184.264127,119.624106 C171.09002,128.694165 155.134156,134.015144 137.928833,134.015144 C107.57162,134.015144 81.0752895,117.483549 66.9513997,92.9319186 C42.2306811,94.9915568 41.5442018,74.6234069 49.5097388,75.4902604 C46.4571409,74.776587 46.350646,69.3652539 55.6669702,65.956722 C55.9823766,61.5609813 56.1024367,56.1634647 56.1024367,52.1887469 C56.1024367,34.9834247 61.4234152,19.0275601 70.4934739,5.85345371 C69.1048125,5.31479941 67.4428701,4.91749208 65.7468719,4.83918074 Z" id="yellow-shad" fill="#FFD500"></path>
                    <g id="suit" transform="translate(76.000000, 109.000000)">
                        <path d="M0.382867745,31.2219699 C13.7537824,39.7143492 29.594288,44.6395202 46.54617,44.6392684 C69.4592582,44.6392684 90.2870884,35.7219447 105.754342,21.1696872 C109.114551,18.0084576 109.639225,13.6954305 108.233893,10.1632312 C91.1088357,22.8655739 78.486648,25.0151436 61.9288334,25.0151436 C58.128654,25.0151436 54.3889768,24.7560843 50.7264986,24.2546626 C39.2623595,29.8714609 29.4483248,31.9086291 0.382867745,31.2219699 Z" id="red" fill="#FF6619"></path>
                        <path d="M108.079967,9.79685506 C106.424224,6.0572062 102.5704,3.29960912 97.6466558,3.93183808 C93.2371379,4.4975235 88.7236753,4.73157585 84.1310168,4.60641795 C75.4280357,4.36889706 67.0329267,2.82357059 59.1365223,0.161281119 C61.4916319,6.10250923 61.1224175,14.5601658 49.9133777,24.4116448 C74.493559,27.5137299 93.9754108,22.4168979 108.079967,9.79685506 Z" id="red-shad" fill="#C6602E"></path>
                        <path d="M48.899748,24.2794616 C75.1002936,27.8057142 95.5777632,22.111046 110,8" id="line" stroke="#5C5768" stroke-width="3" stroke-linecap="round" stroke-linejoin="round"></path>
                    </g>
                </g>
                <g id="necklace" transform="translate(72.000000, 110.000000)" stroke="#5C5768" stroke-width="3" fill="#F5F5F5">
                    <circle id="pearl" cx="76" cy="5" r="5"></circle>
                    <circle id="pearl" cx="77" cy="13" r="5"></circle>
                    <circle id="pearl" cx="73" cy="21" r="5"></circle>
                    <circle id="pearl" cx="66" cy="29" r="5"></circle>
                    <circle id="pearl" cx="56" cy="33" r="5"></circle>
                    <circle id="pearl" cx="45" cy="36" r="5"></circle>
                    <circle id="pearl" cx="35" cy="36" r="5"></circle>
                    <circle id="pearl" cx="25" cy="35" r="5"></circle>
                    <circle id="pearl" cx="15" cy="33" r="5"></circle>
                    <circle id="pearl" cx="5" cy="30" r="5"></circle>
                </g>
            </g>
            <g id="mouth" transform="translate(104.500000, 131.000000) rotate(-5.000000) translate(-104.500000, -131.000000) translate(77.000000, 109.000000)" stroke="#5C5768" stroke-width="3">
                <path d="M18,15 C25,24 32.8733613,26 44,26 C48,26 52,24 52,24 C52,24 50,18 47,14" id="teeth" stroke-linecap="round" stroke-linejoin="round" fill="#FFFFB3"></path>
                <path d="M41.5,15.5 L43.5,25.5" id="Line" stroke-linecap="square"></path>
                <path d="M35.5,15.5 L35.5,24.5" id="Line" stroke-linecap="square"></path>
                <path d="M30.5,13.5 L27.5,21.5" id="Line" stroke-linecap="square"></path>
                <path d="M18,14 C25,23 32.8733613,26 44,26 C48,26 49,31 44,31 C40.0074211,31 24,31 15,16" id="bottom-lip" fill="#FF6619"></path>
                <path d="M25,1.42108547e-14 C26,10 15,21 -1.42108547e-14,14" id="cheek" stroke-linecap="round" stroke-linejoin="round"></path>
                <path d="M19,15 C29,11 36,16 40,15 C44,14 52,13 52,13" id="top-lip-bottom" stroke-linecap="round" stroke-linejoin="round"></path>
                <path d="M19,15 C29,11 36,16 40,15 C44,14 52,13 52,13 C52,13 50,7 39,11 C28.0000001,5.00000007 9,19 19,15 Z" id="top-lip-top" stroke-linecap="round" stroke-linejoin="round" fill="#FF6619"></path>
                <path d="M47,31 C57,33 56,44 47,44" id="chin" stroke-linecap="round" stroke-linejoin="round"></path>
                <path d="M16,15 C14,21 14.0000003,29 21,37" id="mouth-line" stroke-linecap="round" stroke-linejoin="round"></path>
            </g>
            <g id="eye-L" transform="translate(50.000000, 81.000000)">
                <path d="M14,33 C15.25,29 19,27 19,27" id="crinkle" stroke="#5C5768" stroke-width="3" stroke-linecap="round" stroke-linejoin="round" transform="translate(16.500000, 30.000000) rotate(20.000000) translate(-16.500000, -30.000000) "></path>
                <path d="M-2.48001115e-13,29 C5.45454545,25 15,25 15,25" id="crinkle" stroke="#5C5768" stroke-width="3" stroke-linecap="round" stroke-linejoin="round"></path>
                <path d="M20,23 C24,19 35,15.0000001 42,18" id="lid-L" stroke="#5C5768" stroke-width="3" stroke-linecap="round"></path>
                <path d="M20,23 C24,19 35,15.0000001 42,18 C42,18 45,17 44,13 C43,15 42,16 42,16 C42,16 43,14 42,12 C41,15 40,15 40,15 C40,15 40,13 39,11 C39,13 38,15 38,15 C38,15 38,12 37,10 C37,13 36,15 36,15 C36,15 36,12 35,10 C35,13 34,15 34,15 C34,15 34,12 33,10 C33,13 32,15 32,15 C32,15 32,13 31,11 C31,14 30,16 30,16 C30,16 30,14 29,12 C29,15 28,17 28,17 C28,17 28,16 27,14 C27,16 26,18 26,18 L20,23 Z" id="lid-L" fill="#5C5768"></path>
                <path d="M25,26.2307692 C32.3846154,29.9230769 38.5384615,27.4615385 41,25" id="bag-L" stroke="#5C5768" stroke-width="3" stroke-linecap="round"></path>
                <use id="Oval-203" stroke="#5C5768" mask="url(#mask-4)" stroke-width="6" fill="#6B77B3" xlink:href="#path-3"></use>
                <path d="M42,1 C43,4 43,10 35,6 C27,2 17,-3 7,6" id="brow-L" stroke="#5C5768" stroke-width="3" stroke-linecap="round" stroke-linejoin="round"></path>
            </g>
            <g id="hair" transform="translate(1.000000, 12.000000)">
                <path d="M71,54.0000001 C120,31.0000002 140,43 136,68.9999991 C144,43 128,-6.00000148 66,27 C4,60.0000015 57,84.0000001 71,54.0000001 Z" id="bang-swoop" fill="#FFFFB3"></path>
                <path d="M73,39 C83.4423967,36.3894008 83.0115849,5.76064215 104.609135,3.12503587 C76.0000002,-8.00000035 82.0000002,30.0000004 72.0000002,35.9999985 C72.0000002,37.999999 61,42 73,39 Z" id="swoop-color" fill="#B3A76B"></path>
                <path d="M73,39 C85,36 80,-4.00000002 114,4" id="swoop" stroke="#5C5768" stroke-width="3" stroke-linecap="round" stroke-linejoin="round"></path>
                <path d="M72,46 C92,39 87,23 112,21 C123.016667,20.1186666 132.343779,21.7617659 137.350484,24.6457209 C133,19 120.675241,12.354279 103.675241,15.9999999 C86.6752415,19.6457208 91,33.9999986 72,43 C72,44.0000014 72.0000003,44.9999995 72,46 Z" id="swoop-color" fill="#B3A76B"></path>
                <path d="M72,46 C92,39 87,23 112,21 C137,19 143,30 146,39" id="swoop" stroke="#5C5768" stroke-width="3" stroke-linecap="round" stroke-linejoin="round"></path>
                <path d="M69.5637569,54.1879713 C69.5637587,76.9999998 64.9837033,84.7249224 54.9999999,90.9999998 C55.9999999,102 58.9999999,140 85.9999999,142 C83.6874769,158.18766 63,179 29,166 C-5,153 -1.00000012,106 4,89 C-6.00000037,53.9999995 11.0651014,-5.11853245 49.0000015,0.999999992 C69.016297,4.22843482 75.6914193,29.1362772 69.5637569,54.1879713 Z" id="body-color" fill="#FFFFB3"></path>
                <path d="M32,93 C50,88 59,81 59,62 C40,62 34,79.9999999 32,93 Z" id="under" stroke="#5C5768" stroke-width="3" fill="#FFFFB3"></path>
                <path d="M29,95.0000001 C42.0000003,98 52.0000008,92.0000003 54.9999999,90.9999998 C55.9999999,102 58.9999999,140 85.9999999,142 C84.5371831,152.239717 18.9999998,151 29,95.0000001 Z" id="inside-dark" fill="#B3A76B"></path>
                <path d="M71,47 C65,29 23,32.9999993 4,89 C3,86.0000015 2,87.0000015 2,85 C28,11.9999996 77,30.0000002 71,47 Z" id="swoop-color" fill="#B3A76B"></path>
                <path d="M71.5,35 C66,20 36,13.0000004 11,47 C27,8.99999961 71.5,9.00000018 71.5,35 Z" id="swoop-color" fill="#B3A76B"></path>
                <path d="M69.5637569,54.1879713 C69.5637587,76.9999998 64.9837033,84.7249224 54.9999999,90.9999998 C55.9999999,102 58.9999999,140 85.9999999,142 C83.6874769,158.18766 63,179 29,166 C-5,153 -1.15066142e-07,106 4,89 C-6.00000037,53.9999995 11.0651014,-5.11853245 49.0000015,0.999999992 C69.016297,4.22843482 75.6914193,29.1362772 69.5637569,54.1879713 Z" id="body-outline" stroke="#5C5768" stroke-width="4" stroke-linecap="round" stroke-linejoin="round"></path>
                <path d="M68.9999982,59.9999996 C69.9999982,58 69.5613941,55.3082727 70,54 C54.5848167,39.082081 28.7514903,67.1020807 22.8459391,100.080918 C16.8754011,133.422667 51.2072466,161.655953 85.0000038,143 C1.52133309,148.691724 36.0000001,62.9999996 68.9999982,59.9999996 Z" id="swoop" stroke="#5C5768" stroke-width="3" stroke-linecap="round" stroke-linejoin="round" fill="#D8D8D8"></path>
                <path d="M70,54.0000001 C119,31.0000002 140,43 136,68.9999991" id="bang-swoop" stroke="#5C5768" stroke-width="3" stroke-linecap="round" stroke-linejoin="round"></path>
                <path d="M71.5,35 C66,20 36,13.0000004 11,47" id="swoop" stroke="#5C5768" stroke-width="3" stroke-linecap="round" stroke-linejoin="round"></path>
                <path d="M71,47 C65,29 19,34.9999993 4,91" id="swoop" stroke="#5C5768" stroke-width="3" stroke-linecap="round" stroke-linejoin="round"></path>
                <path d="M68,72 C66,83 59,93 36,96" id="sideburn" stroke="#5C5768" stroke-width="4" stroke-linecap="round" stroke-linejoin="round"></path>
                <circle id="earring" stroke="#5C5768" stroke-width="3" fill="#6B77B3" cx="57" cy="118" r="10"></circle>
            </g>
        </g>
    </g>
</svg>