<?xml version="1.0" encoding="UTF-8" standalone="no"?>
<svg width="451px" height="542px" viewBox="0 0 451 542" version="1.1" xmlns="http://www.w3.org/2000/svg" xmlns:xlink="http://www.w3.org/1999/xlink">
    <!-- Generator: Sketch 39 (31667) - http://www.bohemiancoding.com/sketch -->
    <title>main nan</title>
    <desc>Created with Sketch.</desc>
    <defs>
        <path d="M151.84424,66.4084785 C128.895822,78.7596574 97.9125588,84.9948215 76.8268866,80.9326625 C28.12575,71.5503788 0.812494339,16.4267316 0.812494376,0.342613654 C41.2543407,25.804372 73.4186948,30.139059 96.8840274,24.0504518 C148.285715,6.23756876 183.984117,41.9337 151.84424,66.4084785 Z" id="path-1"></path>
    </defs>
    <g id="Page-1" stroke="none" stroke-width="1" fill="none" fill-rule="evenodd">
        <g id="Desktop-HD" transform="translate(-498.000000, -156.000000)">
            <g id="head" transform="translate(396.000000, 156.000000)">
                <g id="main-nan">
                    <g id="body">
                        <path d="M532.631012,193.018063 C533.106075,176.833985 524.233647,162.813643 509.462742,156.429527 C494.870329,150.122295 478.27606,153.214129 467.184837,164.301897 C465.965599,165.523803 464.801282,166.847306 463.724837,168.242201 C457.823615,175.881173 451.34298,183.242814 444.466917,190.118438 C442.981314,191.606692 441.46825,193.075726 439.930472,194.53103 C420.460525,212.966008 401.525542,224.156346 377.780861,234.061606 C367.641435,238.605793 367.902847,248.035331 369.583174,252.197082 C372.22459,258.739209 375.408394,285.204518 365.699695,318.211954 C358.474699,342.775347 297.738887,331.803254 297.738887,331.803254 C297.738887,331.803254 311.737347,303.356633 315.214526,294.912589 C328.806681,261.90515 309.389304,254.138698 284.392488,256.115096 C226.033822,256.115096 170.797393,234.247096 128.851758,194.536521 C120.240202,186.384074 112.23552,177.536925 105.054647,168.242201 C98.140139,159.290709 88.2956152,153.974731 77.3307104,153.271792 C66.1269009,152.555123 55.1455199,156.695875 47.2094882,164.6314 C39.756758,172.078162 35.8381707,182.160947 36.1676945,193.018063 L36.1676945,220.476626 C38.1009009,283.900416 63.886139,343.548654 108.77552,388.435168 C155.551425,435.210831 217.919298,460.969709 284.389742,460.969709 C350.857441,460.969709 413.225314,435.210831 460.001218,388.437913 C504.893345,343.548654 530.678583,283.900416 532.61179,220.476626 L532.631012,193.018063 Z" id="base" fill="#5C5768" transform="translate(284.398829, 307.080883) rotate(-315.000000) translate(-284.398829, -307.080883) "></path>
                        <path d="M398.710319,244.282724 C387.753026,250.393112 405.228663,267.867638 389.694763,314.466366 C384.917442,328.797417 277.073968,353.298641 294.549603,331.940887 C312.025238,310.583132 314.472699,295.474773 315.908717,291.166996 C321.733935,273.692471 315.908717,267.867638 306.076002,268.903459 C242.703671,272.583597 178.102012,251.189025 129.019368,204.720174 C119.85586,196.046014 111.543621,186.828174 104.079907,177.165506 C87.7355262,156.000445 54.0527008,168.164589 54.8682723,194.892755 C56.6449548,253.179047 79.7720342,310.932644 124.263241,355.421009 C216.694669,447.849279 367.525955,447.849279 459.957383,355.421009 C504.44859,310.932644 527.575669,253.179047 529.352352,194.892755 C530.167923,168.164589 496.485098,156.003191 480.137971,177.165506 C472.674256,186.825429 464.364764,196.043268 455.204002,204.717429 C438.033221,220.974825 418.96295,234.16325 398.710319,244.282724 Z" id="yellow-back" fill="#FFFF00" transform="translate(292.110312, 295.563915) rotate(-315.000000) translate(-292.110312, -295.563915) "></path>
                        <path d="M450.132478,287.394458 C362.383034,375.138298 220.111129,375.138298 132.361685,287.394458 C98.9534624,253.988369 78.3033037,212.676961 70.3343195,169.487386 C60.857764,173.666579 53.6219703,183.007983 54.0036688,195.570275 C55.7803513,253.856568 78.9101767,311.607419 123.398637,356.09853 C215.830066,448.5268 366.664097,448.5268 459.095526,356.09853 C503.586732,311.607419 526.713812,253.856568 528.490494,195.570275 C528.872193,183.007983 521.636399,173.666579 512.159843,169.487386 C504.190859,212.676961 483.540701,253.988369 450.132478,287.394458" id="yellow-shade" fill="#FFD500" transform="translate(291.247081, 297.453559) rotate(-315.000000) translate(-291.247081, -297.453559) "></path>
                        <path d="M213.190476,70.3922652 C221.428571,62.1546961 243.396826,62.1546961 243.396825,81.3756906 C243.396825,100.596685 254.380953,92.359116 254.380953,92.359116 L267.145633,20.8814701 C267.678852,17.8956354 265.950867,14.2968985 263.291425,12.8463861 L242.724448,1.628752 C240.062609,0.176932358 236.22687,0.803403315 234.157848,3.02819128 C234.157848,3.02819128 177.031751,64.3984887 174.746032,67.6464088 C172.460312,70.8943289 177.492064,75.8839779 188.47619,64.9005525 C199.460317,53.9171271 213.190476,53.9171271 213.190476,70.3922652 Z" id="hat" fill="#5C5768"></path>
                    </g>
                    <g id="eyes" transform="translate(182.984127, 207.685083)" fill="#5C5768">
                        <ellipse id="eye-R" cx="113.960317" cy="15.1022099" rx="15.1031746" ry="15.1022099"></ellipse>
                        <ellipse id="eye-L" cx="15.1031746" cy="17.8480663" rx="15.1031746" ry="15.1022099"></ellipse>
                    </g>
                    <g id="mouth" transform="translate(182.984127, 298.298343)">
                        <path d="M163.640862,74.2826621 C137.838284,88.1699918 106.089109,95.1806407 82.3809524,90.6132597 C27.6227185,80.064075 -4.105327e-08,18.0845449 0,9.30810984e-13 C45.4717124,28.6285088 78.5488742,33.502313 104.932656,26.6564486 C107.095238,54.9171271 126.31746,71.3922652 163.640862,74.2826621 Z" stroke="#5C5768" stroke-width="10.984127" stroke-linecap="round" stroke-linejoin="round" fill="#826B99"></path>
                        <g id="Mask-+-tongue" transform="translate(5.492063, 4.745856)">
                            <mask id="mask-2" fill="white">
                                <use xlink:href="#path-1"></use>
                            </mask>
                            <g id="Mask"></g>
                            <ellipse id="throat" fill="#5C5768" mask="url(#mask-2)" cx="41.1904762" cy="58.4088398" rx="24.7142857" ry="21.9668508"></ellipse>
                            <ellipse id="Oval-444" stroke="#5C5768" stroke-width="10.984127" fill="#FF6619" mask="url(#mask-2)" cx="72.7698413" cy="83.121547" rx="37.0714286" ry="24.7127072"></ellipse>
                        </g>
                    </g>
                    <ellipse id="shadow" fill-opacity="0.05" fill="#5C5768" cx="324.5" cy="527" rx="136.5" ry="15"></ellipse>
                </g>
            </g>
        </g>
    </g>
</svg>